<?xml version="1.0" encoding="utf-8"?>
<!-- Generator: Adobe Illustrator 12.0.0, SVG Export Plug-In . SVG Version: 6.00 Build 51448)  -->
<!DOCTYPE svg PUBLIC "-//W3C//DTD SVG 1.1//EN" "http://www.w3.org/Graphics/SVG/1.1/DTD/svg11.dtd" [
	<!ENTITY ns_svg "http://www.w3.org/2000/svg">
	<!ENTITY ns_xlink "http://www.w3.org/1999/xlink">
]>
<svg  version="1.1" id="Ebene_1" xmlns="&ns_svg;" xmlns:xlink="&ns_xlink;" width="384" height="320.004"
	 viewBox="0 0 384 320.004" overflow="visible" enable-background="new 0 0 384 320.004" xml:space="preserve">
<path fill="#4581B3" d="M368,144.003H48.809L171.032,27.587c6.399-6.096,6.647-16.225,0.552-22.624
	c-6.088-6.392-16.216-6.647-22.624-0.552L9.376,137.372C3.336,143.419,0,151.452,0,160.003c0,8.543,3.336,16.584,9.656,22.897
	l139.312,132.688c3.097,2.951,7.064,4.416,11.032,4.416c4.225,0,8.448-1.664,11.592-4.969c6.096-6.4,5.848-16.52-0.552-22.615
	L48.305,176.004H368c8.832,0,16-7.168,16-16C384,151.171,376.832,144.003,368,144.003L368,144.003z"/>
</svg>
