<svg xmlns="http://www.w3.org/2000/svg" width="119.459" height="104.939" viewBox="0 0 119.459 104.939"><defs><style>.a{fill:#f1f1f1;}.b{fill:#3f3d56;}.c{fill:#fff;}.d{fill:#e5e5e5;}.e{fill:#6c63ff;}.f{fill:#cbcbcb;}.g{fill:#ffb7b7;}.h{fill:#2f2e41;}</style></defs><g transform="translate(0 0)"><path class="a" d="M908.476,726.636v-10.4S912.529,723.61,908.476,726.636Z" transform="translate(-804.402 -625.495)"/><path class="a" d="M864.589,746.676l-7.661-7.033S865.1,741.643,864.589,746.676Z" transform="translate(-760.264 -645.536)"/><path class="a" d="M280.23,726.636v-10.4S276.178,723.61,280.23,726.636Z" transform="translate(-264.927 -625.495)"/><path class="a" d="M289.081,746.675l7.661-7.033S288.57,741.643,289.081,746.675Z" transform="translate(-274.027 -645.536)"/><path class="b" d="M475.132,109.019h-.555V93.809a8.8,8.8,0,0,0-8.8-8.8H433.548a8.8,8.8,0,0,0-8.8,8.8v83.445a8.8,8.8,0,0,0,8.8,8.8h32.225a8.8,8.8,0,0,0,8.8-8.8V119.846h.555Z" transform="translate(-390.209 -85.005)"/><path class="c" d="M480.6,100.938H476.39a3.123,3.123,0,0,1-2.892,4.3H455.037a3.123,3.123,0,0,1-2.892-4.3h-3.929a6.574,6.574,0,0,0-6.574,6.574v83.323a6.574,6.574,0,0,0,6.574,6.574H480.6a6.574,6.574,0,0,0,6.574-6.574h0V107.512a6.574,6.574,0,0,0-6.574-6.574Z" transform="translate(-404.677 -98.647)"/><path class="d" d="M485.6,676.172H454.84c-3.534,0-6.41-2.566-6.41-5.721V666.31a4.861,4.861,0,0,1,5.1-4.56H486.9a4.861,4.861,0,0,1,5.1,4.56v4.142C492.008,673.606,489.132,676.172,485.6,676.172Z" transform="translate(-410.489 -578.841)"/><path class="e" d="M471.882,231.461h-6.861a.464.464,0,0,1-.464-.464v-6.861a.464.464,0,0,1,.464-.464h6.861a.464.464,0,0,1,.464.464V231A.464.464,0,0,1,471.882,231.461Z" transform="translate(-424.298 -203.739)"/><path class="d" d="M544.118,231.461h-6.861a.464.464,0,0,1-.464-.464v-6.861a.464.464,0,0,1,.464-.464h6.861a.464.464,0,0,1,.464.464V231a.464.464,0,0,1-.464.464Z" transform="translate(-486.15 -203.739)"/><path class="d" d="M616.354,231.461h-6.861a.464.464,0,0,1-.464-.464v-6.861a.464.464,0,0,1,.464-.464h6.861a.464.464,0,0,1,.464.464V231A.464.464,0,0,1,616.354,231.461Z" transform="translate(-548.002 -203.739)"/><path class="d" d="M688.591,231.461H681.73a.464.464,0,0,1-.464-.464v-6.861a.464.464,0,0,1,.464-.464h6.861a.464.464,0,0,1,.464.464V231A.464.464,0,0,1,688.591,231.461Z" transform="translate(-609.854 -203.739)"/><path class="d" d="M471.711,319.822H464.85a.464.464,0,0,1-.464-.464V312.5a.464.464,0,0,1,.464-.464h6.861a.464.464,0,0,1,.464.464v6.861A.464.464,0,0,1,471.711,319.822Z" transform="translate(-424.152 -279.397)"/><path class="d" d="M543.947,319.822h-6.861a.464.464,0,0,1-.464-.464V312.5a.464.464,0,0,1,.464-.464h6.861a.464.464,0,0,1,.464.464v6.861A.464.464,0,0,1,543.947,319.822Z" transform="translate(-486.004 -279.397)"/><path class="e" d="M616.184,319.822h-6.861a.464.464,0,0,1-.464-.464V312.5a.464.464,0,0,1,.464-.464h6.861a.464.464,0,0,1,.464.464v6.861A.464.464,0,0,1,616.184,319.822Z" transform="translate(-547.856 -279.397)"/><path class="e" d="M688.419,319.822h-6.861a.464.464,0,0,1-.464-.464V312.5a.464.464,0,0,1,.464-.464h6.861a.464.464,0,0,1,.464.464v6.861a.464.464,0,0,1-.464.464Z" transform="translate(-609.707 -279.397)"/><path class="d" d="M471.54,408.182h-6.861a.464.464,0,0,1-.464-.464v-6.861a.464.464,0,0,1,.464-.464h6.861a.464.464,0,0,1,.464.464v6.861A.464.464,0,0,1,471.54,408.182Z" transform="translate(-424.005 -355.055)"/><path class="d" d="M543.777,408.182h-6.861a.464.464,0,0,1-.464-.464v-6.861a.464.464,0,0,1,.464-.464h6.861a.464.464,0,0,1,.464.464v6.861A.464.464,0,0,1,543.777,408.182Z" transform="translate(-485.858 -355.055)"/><path class="d" d="M616.013,408.182h-6.861a.464.464,0,0,1-.464-.464v-6.861a.464.464,0,0,1,.464-.464h6.861a.464.464,0,0,1,.464.464v6.861A.464.464,0,0,1,616.013,408.182Z" transform="translate(-547.71 -355.055)"/><path class="d" d="M688.249,408.182h-6.861a.464.464,0,0,1-.464-.464v-6.861a.464.464,0,0,1,.464-.464h6.861a.464.464,0,0,1,.464.464v6.861A.464.464,0,0,1,688.249,408.182Z" transform="translate(-609.562 -355.055)"/><path class="d" d="M471.37,496.542h-6.861a.464.464,0,0,1-.464-.464v-6.861a.464.464,0,0,1,.464-.464h6.861a.464.464,0,0,1,.464.464v6.861A.464.464,0,0,1,471.37,496.542Z" transform="translate(-423.86 -430.713)"/><path class="d" d="M543.606,496.542h-6.861a.464.464,0,0,1-.464-.464v-6.861a.464.464,0,0,1,.464-.464h6.861a.464.464,0,0,1,.464.464v6.861A.464.464,0,0,1,543.606,496.542Z" transform="translate(-485.711 -430.713)"/><path class="d" d="M615.842,496.542h-6.861a.464.464,0,0,1-.464-.464v-6.861a.464.464,0,0,1,.464-.464h6.861a.464.464,0,0,1,.464.464v6.861a.464.464,0,0,1-.464.464Z" transform="translate(-547.564 -430.713)"/><path class="d" d="M688.078,496.542h-6.861a.464.464,0,0,1-.464-.464v-6.861a.464.464,0,0,1,.464-.464h6.861a.464.464,0,0,1,.464.464v6.861A.464.464,0,0,1,688.078,496.542Z" transform="translate(-609.415 -430.713)"/><path class="c" d="M471.882,693.9h-6.861a.464.464,0,0,1-.464-.464v-6.861a.464.464,0,0,1,.464-.464h6.861a.464.464,0,0,1,.464.464v6.861A.464.464,0,0,1,471.882,693.9Z" transform="translate(-424.298 -599.702)"/><path class="c" d="M544.118,693.9h-6.861a.464.464,0,0,1-.464-.464v-6.861a.464.464,0,0,1,.464-.464h6.861a.464.464,0,0,1,.464.464v6.861a.464.464,0,0,1-.464.464Z" transform="translate(-486.15 -599.702)"/><path class="c" d="M616.354,693.9h-6.861a.464.464,0,0,1-.464-.464v-6.861a.464.464,0,0,1,.464-.464h6.861a.464.464,0,0,1,.464.464v6.861A.464.464,0,0,1,616.354,693.9Z" transform="translate(-548.002 -599.702)"/><path class="c" d="M688.591,693.9H681.73a.464.464,0,0,1-.464-.464v-6.861a.464.464,0,0,1,.464-.464h6.861a.464.464,0,0,1,.464.464v6.861A.464.464,0,0,1,688.591,693.9Z" transform="translate(-609.854 -599.702)"/><circle class="d" cx="0.927" cy="0.927" r="0.927" transform="translate(55.44 77.882)"/><circle class="d" cx="0.927" cy="0.927" r="0.927" transform="translate(58.778 77.882)"/><circle class="d" cx="0.927" cy="0.927" r="0.927" transform="translate(62.116 77.882)"/><path class="f" d="M303.815,787.293H184.644a.144.144,0,0,1,0-.288H303.815a.144.144,0,1,1,0,.288Z" transform="translate(-184.5 -686.09)"/><path class="g" d="M491.636,536.827a1.876,1.876,0,0,0-.253-2.865l1.811-6.416-3.3,1.05-1.213,5.931a1.886,1.886,0,0,0,2.957,2.3Z" transform="translate(-444.72 -463.929)"/><path class="b" d="M492.565,415.991a.857.857,0,0,1-.179.015l-3.167-.063a.839.839,0,0,1-.814-.962l3.212-21.706a2.661,2.661,0,0,1,2.625-2.259h0a2.647,2.647,0,0,1,2.563,3.281l-2.277,9.223-1.291,11.739a.835.835,0,0,1-.672.732Z" transform="translate(-444.711 -347.025)"/><path class="g" d="M342.1,677.615h1.762l.839-6.8h-2.6Z" transform="translate(-292.924 -574.384)"/><path class="h" d="M523.478,799.107h3.471a2.212,2.212,0,0,1,2.212,2.212v.072h-5.683Z" transform="translate(-474.749 -696.452)"/><path class="g" d="M394.382,673.885l1.751.2,1.591-6.662-2.585-.29Z" transform="translate(-337.688 -571.227)"/><path class="h" d="M574.7,794.8l3.449.387h0a2.212,2.212,0,0,1,1.952,2.445l-.008.071-5.647-.633Z" transform="translate(-518.393 -692.766)"/><path class="h" d="M508.173,536.146s-2.416,5.349-.283,8.823l1.271,27.05h2.919l2.831-21.851,5.031,6.469-3.065,15.1,3.57.2,4.958-15.3s-3.809-16.869-5.067-17.275l-.827-3.856Z" transform="translate(-460.649 -470.744)"/><path class="f" d="M505.211,572.188s-2.177,2.5,3.573,3.361,11.788-.431,11.932-2.156S505.211,572.188,505.211,572.188Z" transform="translate(-458.762 -502.09)"/><path class="g" d="M669.886,346.632a1.669,1.669,0,0,1-2.021,1.57l-2.174,3.134-2.227-.856L666.6,346.1a1.678,1.678,0,0,1,3.29.535Z" transform="translate(-594.612 -307.523)"/><path class="b" d="M514.515,376.831l-3.073-1.39-3.937.281s-4.747,5.55-2.878,10.869l-1.15,18.544c7.331,2.013,10.664-1.762,15.957-.144l-1.635-20.61Z" transform="translate(-457.622 -333.69)"/><path class="b" d="M565.976,373.177l2.054-1.35s2.853-.431,3.993.675c0,0,3.871.324,4.806,1.29l1.029.232,3.419-4.428,2.092,1.137-3.019,8.194-9.038.45Z" transform="translate(-511.137 -328.685)"/><circle class="g" cx="4.851" cy="4.851" r="4.851" transform="translate(46.637 34.006) rotate(-28.663)"/><path class="h" d="M514.813,293.529c.866-1.557,1.948-2.566,3.729-2.529s3.323-.034,4.124,1.557a2.617,2.617,0,0,0,.308-1.291,1.478,1.478,0,0,1,.653,1.487,1.08,1.08,0,0,0,.533-.886,1.123,1.123,0,0,1,.448,1.585,3.03,3.03,0,0,1-1.457,1.136c-.566.269-.3,1.69-.674,2.2a5.92,5.92,0,0,0-.55,1.187.077.077,0,0,1-.035.037,1.045,1.045,0,0,0-.58,1.07.174.174,0,0,1-.006.1,6.167,6.167,0,0,1-1.964,2.513,3.257,3.257,0,0,1-2.447.378,4.252,4.252,0,0,1-2.326-1.608,8.17,8.17,0,0,1-1.239-2.587,4.842,4.842,0,0,1-.233-2.516,2.087,2.087,0,0,1,1.72-1.661" transform="translate(-465.788 -261.387)"/></g></svg>