<svg xmlns="http://www.w3.org/2000/svg" width="155.808" height="102.989" viewBox="0 0 155.808 102.989"><defs><style>.a{fill:#3f3d56;}.b{fill:#e6e8ec;}.c{fill:#6c63ff;}.d,.e{fill:#fff;}.d{opacity:0.3;}.f{fill:#ffb8b8;}.g{fill:#2f2e41;}.h{fill:#f2f2f2;}</style></defs><g transform="translate(0 0)"><path class="a" d="M415.69,599.557q-6.462-1.012-12.426-1.721l1.531-3.062c-.531-.177-2.834,1.594-2.834,1.594l1.949-8.858c-2.657.354-3.9,9.389-3.9,9.389L397,593.888l1.483,3.41a274.542,274.542,0,0,0-31.492-1.586l1.311-2.621c-.531-.177-2.834,1.594-2.834,1.594l1.949-8.858c-2.657.354-3.9,9.389-3.9,9.389l-3.012-3.012,1.57,3.611A176.78,176.78,0,0,0,344,597.272c1.308-4.074,5.874-7.99,5.874-7.99-3.511,1.092-5.338,2.872-6.284,4.522a71.138,71.138,0,0,1,3.8-24.629s-7.086,15.944-6.023,26.573l.135,1.888a72.589,72.589,0,0,0-9.258,1.921Z" transform="translate(-301.779 -496.568)"/><path class="a" d="M885.048,597.063a2.126,2.126,0,1,1,2.126-2.126A2.126,2.126,0,0,1,885.048,597.063Zm0-3.9a1.772,1.772,0,1,0,1.772,1.771A1.772,1.772,0,0,0,885.048,593.165Z" transform="translate(-754.897 -516.017)"/><path class="a" d="M974.506,722.857h-3.5v-3.5h3.5Zm-3.228-.269h2.959v-2.959h-2.959Z" transform="translate(-827.379 -620.147)"/><path class="a" d="M311.314,717.223l-2.385-2.557,2.557-2.385,2.385,2.557Zm-2.005-2.544,2.018,2.164,2.164-2.018-2.018-2.164Z" transform="translate(-282.59 -614.322)"/><rect class="a" width="151.968" height="0.354" transform="translate(3.839 102.513)"/><path class="a" d="M473.471,183.021v11.635a.407.407,0,0,1-.406.406h-.289v60.613A6.325,6.325,0,0,1,466.452,262H428.578a6.323,6.323,0,0,1-6.323-6.324V197.188h-.209a.287.287,0,0,1-.287-.285v-6.622a.287.287,0,0,1,.287-.287h.209V187.5h-.211a.3.3,0,0,1-.3-.3v-6.532a.3.3,0,0,1,.3-.3h.211v-3.4h-.214a.265.265,0,0,1-.266-.266v-3.564a.267.267,0,0,1,.266-.268h.214v-7.217a6.323,6.323,0,0,1,6.322-6.323h37.874a6.324,6.324,0,0,1,6.324,6.323v16.968h.289A.407.407,0,0,1,473.471,183.021Z" transform="translate(-375.42 -159.325)"/><rect class="b" width="7.055" height="1.433" rx="0.716" transform="translate(67.315 3.243)"/><circle class="b" cx="0.813" cy="0.813" r="0.813" transform="translate(75.437 3.147)"/><path class="c" d="M487.04,183.438v89.3a4.013,4.013,0,0,1-4.013,4.011H446.772a4,4,0,0,1-1.853-.452,3.756,3.756,0,0,1-.39-.23,4.016,4.016,0,0,1-1.77-3.329v-89.3a4.012,4.012,0,0,1,4.013-4.013H452.2v.7a3.3,3.3,0,0,0,3.3,3.3h18.438a3.3,3.3,0,0,0,3.3-3.3v-.7h5.782A4.011,4.011,0,0,1,487.04,183.438Z" transform="translate(-392.712 -175.864)"/><path class="d" d="M487.04,594.6v12.784a4.013,4.013,0,0,1-4.013,4.011H446.772a4,4,0,0,1-1.853-.452,3.763,3.763,0,0,1-.39-.23,4.016,4.016,0,0,1-1.77-3.329V594.6a33.123,33.123,0,0,1,44.28-.005Z" transform="translate(-392.712 -510.507)"/><path class="d" d="M494.914,664.324a3.97,3.97,0,0,1-1.857.455H456.8a4,4,0,0,1-1.853-.452,21.641,21.641,0,0,1,39.965,0Z" transform="translate(-402.743 -563.893)"/><path class="d" d="M523.674,689.982a2.4,2.4,0,0,1-1.123.275H500.612a2.422,2.422,0,0,1-1.121-.273,13.1,13.1,0,0,1,24.184,0Z" transform="translate(-439.392 -589.336)"/><path class="e" d="M473.742,345.89c-3.637,0-7.628-.693-10.744-3.029-4.338-3.253-9.683-3.08-13.4-2.361a29.2,29.2,0,0,0-7.135,2.377l-.164-.314a29.577,29.577,0,0,1,7.222-2.408c3.793-.734,9.247-.909,13.691,2.424,8.326,6.245,23.235.636,23.385.579l.127.331a42.935,42.935,0,0,1-8.628,2.1A32.984,32.984,0,0,1,473.742,345.89Z" transform="translate(-392.332 -307.758)"/><path class="d" d="M442.75,351.829s12.224-2.961,20.727,1.093,23.562-.03,23.562-.03" transform="translate(-392.704 -316.868)"/><path class="d" d="M453.917,353.951a23.283,23.283,0,0,1-4.4-.439A29.579,29.579,0,0,1,442.3,351.1l.164-.314a29.205,29.205,0,0,0,7.135,2.377c3.719.719,9.064.892,13.4-2.361,4.441-3.33,10.661-3.321,15.1-2.727a42.93,42.93,0,0,1,8.629,2.1l-.127.331c-.15-.057-15.058-5.666-23.385.579A15.223,15.223,0,0,1,453.917,353.951Z" transform="translate(-392.331 -314.39)"/><path class="d" d="M454.045,351.7a34.774,34.774,0,0,1-11.666-2.235l.135-.328c.121.05,12.239,4.943,20.568.011,8.472-5.017,23.545-.539,23.7-.493l-.1.339c-.15-.045-15.075-4.479-23.413.459A17.993,17.993,0,0,1,454.045,351.7Z" transform="translate(-392.398 -313.562)"/><path class="d" d="M442.76,350.649s12.222,4.054,20.725,0,23.555-.383,23.555-.383" transform="translate(-392.712 -315.186)"/><path class="f" d="M710.519,420.725v5.165s.413,5.784,2.686,8.676c0,0,3.718,5.268,4.235,4.132l-.636-3.741-2.153-2.044-1.136-6.4-.31-5.784Z" transform="translate(-613.036 -374.417)"/><path class="f" d="M664.732,524.941v3.822l-3.1,1.136v-4.442Z" transform="translate(-544.422 -431.945)"/><path class="f" d="M636.841,522.609l2.066,4.648-2.892,1.24-.62-4.545Z" transform="translate(-522.832 -430.026)"/><path class="g" d="M758.086,467.5s4.132,37.288,2.582,37.391-4.545,2.066-4.545.723-2.376-18.8-2.376-18.8l-2.272-8.986v12.395l2.376,14.048s-2.272,3-3.925,1.24l-3.512-13.738s-4.648-20.865-4.442-22.518C741.973,469.255,752.612,460.165,758.086,467.5Z" transform="translate(-638.912 -410.552)"/><path class="g" d="M821.1,702.349a1.749,1.749,0,0,1,2.686-.62l1.549,1.859s3.995,3.308,1.16,4.017a7.7,7.7,0,0,1-4.672-.047,2.259,2.259,0,0,0-.93-.31,2.25,2.25,0,0,1-1.343-.93c0-.207.31-3.867.31-3.867a.651.651,0,0,1,.723.1C820.893,702.865,821.1,702.349,821.1,702.349Z" transform="translate(-702.752 -605.325)"/><path class="g" d="M783.821,700.575s1.963-1.549,2.892.207c0,0,.585.207.654,0s.585-.31.585.826.561,3.97.044,4.073-1.033.413-.93.826-.561.471-2.937.368-2.479-1.033-2.479-1.033a3.737,3.737,0,0,1,.62-2.066A16.753,16.753,0,0,0,783.821,700.575Z" transform="translate(-671.568 -604.171)"/><path class="f" d="M744.507,321.6s-.517,3.822,2.789,5.165-7.334,5.784-8.367,3.2.207-3.409.207-3.409,1.033-1.033.1-3.822Z" transform="translate(-636.075 -292.856)"/><circle class="f" cx="4.545" cy="4.545" r="4.545" transform="translate(100.581 22.345)"/><path class="h" d="M741.659,357.755a7.887,7.887,0,0,1-6.094.413c-3-1.24-2.892,4.132-2.892,4.132l1.549,4.028,10.742-1.033-.723-6.2Z" transform="translate(-631.265 -322.602)"/><path class="a" d="M719.972,337.8a3.75,3.75,0,0,1,2.572,1.985l4.958,1.549,1.24,1.756L727.3,355.8s2.686,2.582,2.686,4.028,3.305,6.4,1.653,5.784a29.017,29.017,0,0,1-4.648-2.789s-7.54.31-9.916,2.376-3.305,1.446-3.305,1.446-2.479-10.742-2.582-12.395-3-11.569-3-11.569l5.165-2.892,1.315-1.492,3.643,5.831,3.305-4.028S719.982,338.814,719.972,337.8Z" transform="translate(-611.118 -306.186)"/><path class="f" d="M818.568,412.562l.62,3.305s2.789,10.329,2.376,13.841c0,0,.31,7.85-1.446,6.921s-.826-6.611-.826-6.611l-2.479-10.226-1.343-5.991Z" transform="translate(-699.394 -367.7)"/><path class="a" d="M814.067,364.168l1.033.62s3.925,8.16,3,8.78a39.575,39.575,0,0,1-4.958,1.963Z" transform="translate(-697.475 -327.879)"/><path class="a" d="M548.017,205.77l-2.427-.052-.568.981.723,10.019,3.718.826Z" transform="translate(-448.469 -169.274)"/><path class="g" d="M729.128,277.135l.819-.3a5.825,5.825,0,0,0-4.1-1.564l.67-.67a3.04,3.04,0,0,0-3.128.968,13.309,13.309,0,0,0-2.254,2.877h-.877l.366.732-1.281.732,1.315-.132a3.7,3.7,0,0,0,.124,1.9l.3.819a23.62,23.62,0,0,0,1.192-2.681v.745s.819-.67.819-1.117l.447.521.223-.819,2.755.819-.447-.67,1.713.223-.67-.819s1.936.968,2.011,1.787a6.914,6.914,0,0,0,.586,1.887l.62-.723S731.288,278.252,729.128,277.135Z" transform="translate(-620.301 -254.089)"/><ellipse class="f" cx="0.362" cy="0.93" rx="0.362" ry="0.93" transform="translate(108.586 26.011)"/><path class="a" d="M195.5,664.767c2.2,4.083,6.875,5.836,6.875,5.836s1.1-4.867-1.1-8.951-6.875-5.836-6.875-5.836S193.3,660.684,195.5,664.767Z" transform="translate(-188.122 -567.861)"/><path class="c" d="M169.139,690.982c3.975,2.392,5.506,7.142,5.506,7.142s-4.914.873-8.889-1.519-5.506-7.142-5.506-7.142S165.164,688.59,169.139,690.982Z" transform="translate(-160.25 -595.419)"/><path class="d" d="M442.76,343.509s12.222-6.378,20.725,0,23.555.6,23.555.6" transform="translate(-392.712 -308.548)"/><circle class="e" cx="1.949" cy="1.949" r="1.949" transform="translate(70.286 95.96)"/></g></svg>