<?xml version="1.0" encoding="utf-8"?>
<!-- Generator: Adobe Illustrator 12.0.0, SVG Export Plug-In . SVG Version: 6.00 Build 51448)  -->
<!DOCTYPE svg PUBLIC "-//W3C//DTD SVG 1.1//EN" "http://www.w3.org/Graphics/SVG/1.1/DTD/svg11.dtd" [
	<!ENTITY ns_svg "http://www.w3.org/2000/svg">
	<!ENTITY ns_xlink "http://www.w3.org/1999/xlink">
]>
<svg  version="1.1" id="Ebene_1" xmlns="&ns_svg;" xmlns:xlink="&ns_xlink;" width="48" height="48" viewBox="0 0 48 48"
	 overflow="visible" enable-background="new 0 0 48 48" xml:space="preserve">
<path fill="#FFFFFF" d="M24,48C10.767,48,0,37.232,0,24C0,10.767,10.767,0,24,0c13.232,0,24,10.767,24,24C48,37.232,37.232,48,24,48
	z M24,2C11.869,2,2,11.869,2,24s9.869,22,22,22s22-9.869,22-22S36.131,2,24,2z M28.152,24.02c-3.348,2.71-3.166,5.77-3.155,5.899
	c0.04,0.548-0.37,1.029-0.917,1.074c-0.027,0.002-0.055,0.003-0.082,0.003c-0.513,0-0.948-0.389-0.994-0.908
	c-0.015-0.17-0.321-4.212,3.889-7.621c1.519-1.23,2.109-2.423,2.109-4.254C29.002,15.339,26.758,13,24,13
	c-2.803,0-4.998,2.197-4.998,5.002c0,0.553-0.448,1-1,1c-0.552,0-1-0.447-1-1C17.002,14.075,20.076,11,24,11
	c3.861,0,7.002,3.235,7.002,7.213C31.002,20.665,30.15,22.401,28.152,24.02z M24,34c1.104,0,2,0.898,2,2s-0.896,2-2,2
	c-1.103,0-2-0.898-2-2S22.897,34,24,34z"/>
</svg>
