<?xml version="1.0" encoding="utf-8"?>
<!-- Generator: Adobe Illustrator 12.0.0, SVG Export Plug-In . SVG Version: 6.00 Build 51448)  -->
<!DOCTYPE svg PUBLIC "-//W3C//DTD SVG 1.1//EN" "http://www.w3.org/Graphics/SVG/1.1/DTD/svg11.dtd" [
	<!ENTITY ns_svg "http://www.w3.org/2000/svg">
	<!ENTITY ns_xlink "http://www.w3.org/1999/xlink">
]>
<svg  version="1.1" id="Ebene_1" xmlns="&ns_svg;" xmlns:xlink="&ns_xlink;" width="199.793" height="200"
	 viewBox="0 0 199.793 200" overflow="visible" enable-background="new 0 0 199.793 200" xml:space="preserve">
<g id="g10">
	<g id="g8">
		<line id="line4" fill="#FFFFFF" x1="48.497" y1="71.483" x2="151.88" y2="71.483"/>
		<path id="path6" fill="#FFFFFF" d="M48.497,73.482c34.46,0,68.931,0,103.377,0c4.521,0,4.521-4,0-4c-34.444,0-68.917,0-103.377,0
			C44.001,69.482,44.001,73.482,48.497,73.482L48.497,73.482z"/>
	</g>
</g>
<g id="g18">
	<g id="g16">
		<line id="line12" fill="#FFFFFF" x1="20.272" y1="100.445" x2="179.857" y2="100.445"/>
		<path id="path14" fill="#FFFFFF" d="M20.272,103.445c53.194,0,106.387,0,159.558,0c6.973,0,6.973-6,0-6
			c-53.173,0-106.364,0-159.558,0C13.322,97.446,13.322,103.445,20.272,103.445L20.272,103.445z"/>
	</g>
</g>
<g id="g26">
	<g id="g24">
		<line id="line20" fill="#FFFFFF" x1="48.497" y1="127.577" x2="151.88" y2="127.577"/>
		<path id="path22" fill="#FFFFFF" d="M48.497,129.576c34.46,0,68.931,0,103.377,0c4.521,0,4.521-4,0-4
			c-34.444,0-68.917,0-103.377,0C44.001,125.576,44.001,129.576,48.497,129.576L48.497,129.576z"/>
	</g>
</g>
</svg>
