<svg xmlns="http://www.w3.org/2000/svg" width="239.321" height="158.191" viewBox="0 0 239.321 158.191"><defs><style>.a{fill:#3f3d56;}.b{fill:#e6e8ec;}.c{fill:#6c63ff;}.d,.e{fill:#fff;}.d{opacity:0.3;}.f{fill:#ffb8b8;}.g{fill:#2f2e41;}.h{fill:#f2f2f2;}</style></defs><path class="a" d="M460.414,615.842q-9.925-1.554-19.086-2.643l2.352-4.7c-.816-.272-4.354,2.449-4.354,2.449l2.993-13.605c-4.082.544-5.986,14.422-5.986,14.422l-4.626-4.626,2.277,5.237a421.72,421.72,0,0,0-48.372-2.436l2.013-4.026c-.816-.272-4.354,2.449-4.354,2.449l2.993-13.605c-4.082.544-5.986,14.422-5.986,14.422l-4.626-4.626,2.412,5.547a271.536,271.536,0,0,0-27.761,2.236c2.009-6.257,9.023-12.273,9.023-12.273-5.393,1.678-8.2,4.412-9.652,6.946a109.268,109.268,0,0,1,5.842-37.83s-10.884,24.49-9.252,40.816l.207,2.9a111.506,111.506,0,0,0-14.221,2.95Z" transform="translate(-285.447 -457.651)"/><path class="a" d="M886.187,599.342a3.265,3.265,0,1,1,3.265-3.265A3.265,3.265,0,0,1,886.187,599.342Zm0-5.986a2.721,2.721,0,1,0,2.721,2.721A2.721,2.721,0,0,0,886.187,593.355Z" transform="translate(-686.276 -474.855)"/><path class="a" d="M976.381,724.732h-5.372V719.36h5.372Zm-4.959-.413h4.545v-4.545h-4.545Z" transform="translate(-750.394 -566.969)"/><path class="a" d="M312.593,719.872l-3.664-3.928,3.928-3.664,3.664,3.928Zm-3.08-3.908,3.1,3.324,3.324-3.1-3.1-3.324Z" transform="translate(-268.472 -561.816)"/><rect class="a" width="233.423" height="0.544" transform="translate(5.897 157.459)"/><path class="a" d="M501.2,195.722v17.872a.625.625,0,0,1-.623.623h-.444v93.1a9.715,9.715,0,0,1-9.714,9.714H432.24a9.712,9.712,0,0,1-9.712-9.713V217.483h-.321a.44.44,0,0,1-.441-.438V206.873a.441.441,0,0,1,.441-.441h.321V202.6H422.2a.462.462,0,0,1-.46-.463V192.106a.461.461,0,0,1,.46-.46h.324v-5.23H422.2a.408.408,0,0,1-.408-.408v-5.475a.41.41,0,0,1,.408-.411h.329V169.037a9.712,9.712,0,0,1,9.711-9.712h58.175a9.714,9.714,0,0,1,9.714,9.712V195.1h.444A.625.625,0,0,1,501.2,195.722Z" transform="translate(-350.59 -159.325)"/><rect class="b" width="10.836" height="2.2" rx="1.1" transform="translate(103.396 4.981)"/><circle class="b" cx="1.248" cy="1.248" r="1.248" transform="translate(115.871 4.833)"/><path class="c" d="M510.774,185.588V322.756a6.163,6.163,0,0,1-6.163,6.161H448.923a6.146,6.146,0,0,1-2.846-.694,5.764,5.764,0,0,1-.6-.354,6.168,6.168,0,0,1-2.718-5.113V185.588a6.163,6.163,0,0,1,6.164-6.163h8.334v1.069a5.075,5.075,0,0,0,5.075,5.075h28.321a5.075,5.075,0,0,0,5.075-5.075v-1.069h8.882A6.161,6.161,0,0,1,510.774,185.588Z" transform="translate(-365.886 -173.956)"/><path class="d" d="M510.774,599.146v19.635a6.163,6.163,0,0,1-6.163,6.16H448.923a6.145,6.145,0,0,1-2.846-.694,5.76,5.76,0,0,1-.6-.354,6.168,6.168,0,0,1-2.718-5.113V599.155a50.877,50.877,0,0,1,68.014-.008Z" transform="translate(-365.886 -469.981)"/><path class="d" d="M516.335,671.468a6.1,6.1,0,0,1-2.852.7H457.8a6.145,6.145,0,0,1-2.846-.694,33.241,33.241,0,0,1,61.386,0Z" transform="translate(-374.759 -517.206)"/><path class="d" d="M536.636,694.3a3.689,3.689,0,0,1-1.726.423h-33.7a3.719,3.719,0,0,1-1.722-.42,20.115,20.115,0,0,1,37.146,0Z" transform="translate(-407.18 -539.714)"/><path class="e" d="M490.6,349.2c-5.586,0-11.717-1.064-16.5-4.653-6.663-5-14.873-4.731-20.586-3.627a44.858,44.858,0,0,0-10.959,3.65l-.252-.483a45.431,45.431,0,0,1,11.093-3.7c5.826-1.128,14.2-1.4,21.03,3.723,12.789,9.592,35.689.977,35.919.889l.2.508a65.948,65.948,0,0,1-13.253,3.226A50.666,50.666,0,0,1,490.6,349.2Z" transform="translate(-365.55 -290.629)"/><path class="d" d="M442.75,352.388s18.776-4.548,31.837,1.679,36.191-.046,36.191-.046" transform="translate(-365.879 -298.687)"/><path class="d" d="M460.146,357.261a35.771,35.771,0,0,1-6.755-.675,45.434,45.434,0,0,1-11.093-3.7l.252-.483a44.861,44.861,0,0,0,10.959,3.65c5.713,1.1,13.923,1.371,20.586-3.627,6.821-5.116,16.375-5.1,23.187-4.188a65.943,65.943,0,0,1,13.253,3.226l-.2.508c-.23-.088-23.13-8.7-35.919.889A23.382,23.382,0,0,1,460.146,357.261Z" transform="translate(-365.549 -296.496)"/><path class="d" d="M460.3,354.337a53.413,53.413,0,0,1-17.919-3.433l.207-.5c.186.077,18.8,7.592,31.592.018,13.014-7.706,36.165-.827,36.4-.757l-.158.521c-.23-.07-23.155-6.879-35.962.7A27.638,27.638,0,0,1,460.3,354.337Z" transform="translate(-365.609 -295.763)"/><path class="d" d="M442.76,351.671s18.773,6.226,31.834,0,36.18-.588,36.18-.588" transform="translate(-365.886 -297.2)"/><path class="f" d="M710.519,420.725v7.933s.635,8.885,4.125,13.327c0,0,5.712,8.091,6.5,6.346l-.977-5.746-3.307-3.139-1.745-9.837-.476-8.885Z" transform="translate(-560.785 -349.596)"/><path class="f" d="M666.393,524.941v5.87l-4.76,1.745v-6.822Z" transform="translate(-481.596 -382.099)"/><path class="f" d="M637.616,522.609l3.173,7.139-4.442,1.9-.952-6.981Z" transform="translate(-462.498 -380.402)"/><path class="g" d="M766.727,469.032s6.346,57.274,3.966,57.433-6.981,3.173-6.981,1.111-3.649-28.875-3.649-28.875l-3.49-13.8v19.039l3.649,21.577s-3.491,4.6-6.029,1.9l-5.394-21.1s-7.139-32.048-6.822-34.587C741.977,471.729,758.318,457.767,766.727,469.032Z" transform="translate(-583.676 -381.561)"/><path class="g" d="M821.93,702.886a2.686,2.686,0,0,1,4.125-.952l2.38,2.856s6.136,5.081,1.782,6.17c-4.487,1.122-7.176-.072-7.176-.072a3.469,3.469,0,0,0-1.428-.476,3.456,3.456,0,0,1-2.062-1.428c0-.317.476-5.939.476-5.939a1,1,0,0,1,1.11.159C821.613,703.679,821.93,702.886,821.93,702.886Z" transform="translate(-640.148 -553.857)"/><path class="g" d="M784.984,700.913s3.015-2.38,4.442.317c0,0,.9.317,1,0s.9-.476.9,1.269.862,6.1.068,6.257-1.586.635-1.428,1.269-.862.724-4.511.565S781.652,709,781.652,709a5.739,5.739,0,0,1,.952-3.173A25.731,25.731,0,0,0,784.984,700.913Z" transform="translate(-612.562 -552.836)"/><path class="f" d="M747.717,321.6s-.793,5.87,4.284,7.933-11.264,8.885-12.851,4.918.317-5.236.317-5.236,1.586-1.587.159-5.87Z" transform="translate(-581.166 -277.447)"/><circle class="f" cx="6.981" cy="6.981" r="6.981" transform="translate(154.493 34.321)"/><path class="h" d="M746.476,357.755s-4.76,2.538-9.361.635-4.442,6.346-4.442,6.346l2.38,6.188,16.5-1.587-1.111-9.519Z" transform="translate(-576.911 -303.76)"/><path class="a" d="M726.289,337.8a5.76,5.76,0,0,1,3.951,3.049l7.615,2.38,1.9,2.7-2.221,19.515s4.125,3.966,4.125,6.188,5.077,9.837,2.538,8.885-7.139-4.284-7.139-4.284-11.582.476-15.231,3.649-5.077,2.221-5.077,2.221-3.808-16.5-3.966-19.039-4.6-17.769-4.6-17.769l7.933-4.442,2.02-2.293,5.6,8.956,5.077-6.187S726.3,339.356,726.289,337.8Z" transform="translate(-559.088 -289.238)"/><path class="f" d="M820.229,412.562l.952,5.077s4.284,15.866,3.649,21.26c0,0,.476,12.058-2.221,10.63s-1.269-10.154-1.269-10.154l-3.808-15.707-2.063-9.2Z" transform="translate(-637.178 -343.654)"/><path class="a" d="M814.565,364.168l1.587.952s6.029,12.534,4.6,13.486-7.615,3.014-7.615,3.014Z" transform="translate(-635.48 -308.428)"/><path class="a" d="M549.623,205.8l-3.728-.079-.872,1.507,1.111,15.39,5.712,1.269Z" transform="translate(-396.716 -149.74)"/><path class="g" d="M734.37,278.552l1.258-.458a8.947,8.947,0,0,0-6.291-2.4l1.029-1.03a4.67,4.67,0,0,0-4.8,1.487,20.44,20.44,0,0,0-3.461,4.419h-1.347l.562,1.125-1.968,1.125,2.02-.2a5.677,5.677,0,0,0,.191,2.913l.458,1.258a36.281,36.281,0,0,0,1.83-4.118v1.144s1.258-1.029,1.258-1.716l.686.8.343-1.258,4.232,1.258-.686-1.029,2.631.343-1.03-1.258s2.974,1.487,3.089,2.745a10.618,10.618,0,0,0,.9,2.9l.952-1.111S737.688,280.268,734.37,278.552Z" transform="translate(-567.212 -243.154)"/><ellipse class="f" cx="0.555" cy="1.428" rx="0.555" ry="1.428" transform="translate(166.789 39.954)"/><path class="a" d="M196.235,669.565c3.382,6.272,10.559,8.964,10.559,8.964s1.694-7.476-1.687-13.748-10.559-8.964-10.559-8.964S192.853,663.293,196.235,669.565Z" transform="translate(-184.906 -520.716)"/><path class="c" d="M173.9,691.879c6.106,3.673,8.457,10.97,8.457,10.97s-7.548,1.341-13.653-2.333-8.457-10.97-8.457-10.97S167.8,688.206,173.9,691.879Z" transform="translate(-160.25 -545.094)"/><path class="d" d="M442.76,345.029s18.773-9.8,31.834,0,36.18.926,36.18.926" transform="translate(-365.886 -291.328)"/><circle class="e" cx="2.993" cy="2.993" r="2.993" transform="translate(107.96 147.395)"/></svg>