<svg xmlns="http://www.w3.org/2000/svg" width="229.973" height="174.97" viewBox="0 0 229.973 174.97"><defs><style>.a{fill:#3f3d56;}.b{fill:#fff;}.c{fill:#cbcbcb;}.d{fill:#6c63ff;}.e{fill:#f1f1f1;}.f{fill:#ffb7b7;}.g{fill:#2f2e41;}.h{opacity:0.1;}</style></defs><path class="a" d="M324.419,175.785h-.839V152.8a13.3,13.3,0,0,0-13.3-13.3H261.586a13.3,13.3,0,0,0-13.3,13.3V278.888a13.3,13.3,0,0,0,13.3,13.3h48.692a13.3,13.3,0,0,0,13.3-13.3V192.144h.839Z" transform="translate(-232.395 -139.5)"/><path class="b" d="M320.171,151.783h-6.356a4.72,4.72,0,0,1-4.37,6.5h-27.9a4.72,4.72,0,0,1-4.37-6.5h-5.936a9.934,9.934,0,0,0-9.934,9.934v125.9a9.934,9.934,0,0,0,9.934,9.934h48.927a9.934,9.934,0,0,0,9.934-9.934h0v-125.9a9.934,9.934,0,0,0-9.934-9.934Z" transform="translate(-241.752 -148.322)"/><path class="c" d="M299.523,680.063H192.174a.282.282,0,1,1,0-.563H299.523a.282.282,0,1,1,0,.563Z" transform="translate(-191.892 -527.352)"/><circle class="d" cx="23.793" cy="23.793" r="23.793" transform="translate(30.163 49.811)"/><path class="b" d="M354.437,386.817a2.468,2.468,0,0,1-1.485-.493l-.027-.02-5.592-4.278a2.485,2.485,0,0,1,3.024-3.944l3.622,2.777,8.559-11.166a2.484,2.484,0,0,1,3.483-.46h0l-.053.074.055-.074a2.487,2.487,0,0,1,.459,3.483l-10.067,13.127a2.485,2.485,0,0,1-1.976.969Z" transform="translate(-302.838 -304.137)"/><path class="e" d="M883.031,614.423a7.4,7.4,0,0,1,1.016-1.295c.159-.165.327-.32.5-.472a7.929,7.929,0,0,1,13.074,4.51c1.162-4.3-1.863-8.53-4.9-11.782s-6.521-6.816-6.5-11.27a8.58,8.58,0,0,1,3.051-6.328c.057-.05.113-.1.171-.147a11.572,11.572,0,0,1,7.97-2.778c5.409.29,10.133,3.925,13.413,8.238,5.28,6.939,7.594,16.679,3.9,24.578-3.251,6.947-10.185,11.072-17.262,14.389q-1.482.695-2.959,1.348l-.02.008c-.047.021-.095.042-.139.063l-.608.268.093.061.291.188-.3-.181-.092-.055c-3.476-2.085-7-4.292-9.4-7.548C881.827,622.839,880.826,618,883.031,614.423Z" transform="translate(-687.423 -459.373)"/><path class="b" d="M911.917,613.654a19.679,19.679,0,0,1,1.515,5.5,17.085,17.085,0,0,1-.206,5.075,21.887,21.887,0,0,1-4.389,9.389,31.5,31.5,0,0,1-5.686,5.528q-1.482.695-2.959,1.348l-.02.008c-.047.021-.095.042-.139.063l-.608.268.093.061.291.188-.3-.181-.091-.054a17.257,17.257,0,0,0-9.672-20.638c.159-.165.327-.32.5-.472a18.208,18.208,0,0,1,2.79,1.593,17.84,17.84,0,0,1,6.75,8.943,18.242,18.242,0,0,1,.4,10.2c.174-.114.35-.231.52-.348a31.977,31.977,0,0,0,8.47-8.022,20.359,20.359,0,0,0,3.613-9.181,18.4,18.4,0,0,0-2.088-10.4,42.62,42.62,0,0,0-6.677-9.487,48.422,48.422,0,0,0-8.953-7.7.348.348,0,0,1-.1-.469.3.3,0,0,1,.171-.147.258.258,0,0,1,.22.044c.406.271.808.544,1.206.825a48.971,48.971,0,0,1,8.95,8.175A39.431,39.431,0,0,1,911.917,613.654Z" transform="translate(-693.12 -466.454)"/><circle class="e" cx="5.053" cy="5.053" r="5.053" transform="translate(142.881 0.942)"/><circle class="e" cx="3.081" cy="3.081" r="3.081" transform="translate(207.684 72.507)"/><circle class="e" cx="3.081" cy="3.081" r="3.081" transform="translate(117.523 80.96)"/><path class="c" d="M625.39,759.064H732.739a.282.282,0,0,0,0-.564H625.39a.282.282,0,0,0,0,.564Z" transform="translate(-503.047 -584.093)"/><path class="f" d="M922.647,224.142a4.128,4.128,0,0,0-7.928-2.092l-8.711,9.987,2.556,7.139,8.761-11.669a4.106,4.106,0,0,0,5.322-3.364Z" transform="translate(-704.802 -196.914)"/><path class="a" d="M616.328,140.073l28.916-30.86-3.9-6.2-36.268,30.673Z" transform="translate(-434.592 -73.988)"/><circle class="g" cx="10.143" cy="10.143" r="10.143" transform="translate(165.139 27.049)"/><path class="g" d="M816.894,236.17a21.269,21.269,0,0,1,7.738-5,10.887,10.887,0,0,1,5.862-.728,5.587,5.587,0,0,1,4.35,3.665,6.917,6.917,0,0,1-.707,4.735c-.692,1.477-1.617,2.846-2.176,4.378a9.993,9.993,0,0,0,10.056,13.4c-1.921.258-3.693,1.161-5.571,1.641s-4.095.448-5.49-.9c-1.477-1.424-1.506-3.738-1.435-5.788q.159-4.571.318-9.142a11.615,11.615,0,0,0-.46-4.608,3.957,3.957,0,0,0-3.447-2.707,5.656,5.656,0,0,0-3.167,1.428,6.469,6.469,0,0,1-3.119,1.56c-1.174.1-2.514-.764-2.426-1.939Z" transform="translate(-640.796 -204.709)"/><path class="f" d="M663.927,468.542a4.128,4.128,0,0,1-3.11-7.586l8.763-9.941,7.411,1.6-10.424,10.21a4.106,4.106,0,0,1-2.64,5.716Z" transform="translate(-527.169 -363.244)"/><path class="a" d="M515.053,207.619l-21.84,27.415-6.657-3.056,25.671-39.966Z" transform="translate(-349.465 -137.912)"/><path class="f" d="M512.579,541l-5.205-.082L508,558.662h4.578Z" transform="translate(-364.419 -388.514)"/><path class="g" d="M684.249,738.081h-9.017a5.746,5.746,0,0,0-5.746,5.746v.187h14.763Z" transform="translate(-534.921 -569.427)"/><path class="f" d="M633.67,524.511l-5.686,3.65,11.374,13.683,3.853-2.473Z" transform="translate(-451.046 -376.727)"/><path class="g" d="M848.462,710.049l-7.587,4.871h0a5.746,5.746,0,0,0-1.731,7.94l.1.157,12.423-7.976Z" transform="translate(-656.123 -549.294)"/><path class="a" d="M733.749,363.276s-12.634-41.961-16.694-42.528-10.6,10.767-10.6,10.767c-8.482,10.822-17.228,45.876-17.228,45.876s14.58.912,25.238,6.583,23.236-.287,23.236-.287Z" transform="translate(-549.099 -269.665)"/><path class="h" d="M733.749,363.276s-12.634-41.961-16.694-42.528-8.94,10.882-8.94,10.882c-4.226,17.469-18.889,45.761-18.889,45.761s14.58.912,25.238,6.583,23.236-.287,23.236-.287Z" transform="translate(-549.099 -269.666)"/><path class="g" d="M534.394,280.225V301.31l2.481,30.543,12.4,23.1-5.917,4.226L526.45,337.207l-6.686-21.822-10.5,48.307-7.889-.564,5.479-66.976,10.4-18.852Z" transform="translate(-360.109 -199.169)"/><path class="d" d="M753.04,330.38c-3.945,3.945-.282,8.171-.282,8.171l-4.508,10.143L766,353.484l6.2-27.719-4.226-4.508c-8.453-.282-8.457-.457-8.457-.457C758.039,322.249,753.04,330.38,753.04,330.38Z" transform="translate(-591.493 -269.718)"/><path class="a" d="M794.207,324.456a7.575,7.575,0,0,0-10.644,1.666c-4.462,6.213-8.589,16.246-2.9,28.759,9.129,20.092,17.073,30.377,20.3,30.376a1.285,1.285,0,0,0,.415-.065c1.988-.674,4.862-4.038,5.382-7a3.552,3.552,0,0,0-1.127-3.554c-3.645-2.915-10.188-11.992-12.229-23.939-1.128-6.6,1.059-12.615,3.093-16.5a7.574,7.574,0,0,0-2.191-9.672h0Z" transform="translate(-612.781 -271.28)"/><circle class="f" cx="7.467" cy="7.467" r="7.467" transform="translate(162.089 36.817) rotate(-28.663)"/><path class="g" d="M765.872,257.783h10.781l.111-1.548.553,1.548h1.66l.219-3.068,1.1,3.068H783.5v-.152a8.065,8.065,0,0,0-8.056-8.056h-1.52a8.065,8.065,0,0,0-8.056,8.056Z" transform="translate(-604.15 -218.561)"/><path class="g" d="M812.245,266.166l4.6-1.493V253.5h-8.691l.215.215C811.365,256.7,814.694,267.312,812.245,266.166Z" transform="translate(-634.52 -221.38)"/></svg>