<svg xmlns="http://www.w3.org/2000/svg" width="135.733" height="98.195" viewBox="0 0 135.733 98.195"><defs><style>.a{fill:#f2f2f2;}.b{fill:#2f2e41;}.c{fill:#ffb9b9;}.d{opacity:0.1;}.e{fill:#575a89;}.f,.h{opacity:0.2;}.g{fill:#6c63ff;}.h,.i{fill:none;stroke-miterlimit:10;stroke-width:2px;}.h{stroke:#000;}.i{stroke:#3f3d56;}.j{fill:#3f3d56;}.k{fill:#9f616a;}.l{fill:#d0cde1;}.m{fill:#57b894;}</style></defs><g transform="translate(0 -0.586)"><circle class="a" cx="46" cy="46" r="46" transform="translate(12.047 0.586)"/><ellipse class="a" cx="18.279" cy="2.925" rx="18.279" ry="2.925" transform="translate(0 92.931)"/><ellipse class="a" cx="28.283" cy="4.525" rx="28.283" ry="4.525" transform="translate(79.167 86.757)"/><path class="b" d="M853.1,435.945s.241.8-1.124,1.525-1.766,3.451-.161,4.254,2.087,1.846,1.284,2.568-2.247,2.649-.321,3.13,2.167,1.445,1.605,1.846,1.284-.722,1.284-.722.321,1.926,2.007,1.445,6.421-9.632,4.013-10.916A69.409,69.409,0,0,0,853.1,435.945Z" transform="translate(-751.936 -388.159)"/><path class="c" d="M871.018,490.513s.833,2.914-.624,3.122a5.688,5.688,0,0,0-2.5,1.041l2.706,3.538h5l3.122-3.122s-4.163-3.122-3.33-5S871.018,490.513,871.018,490.513Z" transform="translate(-766.943 -434.977)"/><path class="d" d="M871.018,490.513s.833,2.914-.624,3.122a5.688,5.688,0,0,0-2.5,1.041l2.706,3.538h5l3.122-3.122s-4.163-3.122-3.33-5S871.018,490.513,871.018,490.513Z" transform="translate(-766.943 -434.977)"/><path class="c" d="M852.787,718.976l4.787,1.665,3.33.208-.208-2.914-6.869-2.031Z" transform="translate(-747.463 -627.223)"/><path class="e" d="M953,767.26s0,2.914.416,2.914,6.036-.624,7.7,0,4.163-1.665,2.914-2.914-3.286-3.122-4.557-2.706S953,766.011,953,766.011Z" transform="translate(-841.539 -676.132)"/><path class="e" d="M819.163,764.974s-2.5,5-.833,5.412a5.775,5.775,0,0,0,3.747-.416c.208-.208,3.122-1.041,3.538-.624s.416-1.665.416-1.665Z" transform="translate(-722.997 -676.551)"/><path class="b" d="M831,709.359s-3.955,5.412-1.041,6.869,16.86,1.457,17.9,0,1.457-6.036,0-6.452S831,709.359,831,709.359Z" transform="translate(-732.752 -627.805)"/><path class="f" d="M831,709.359s-3.955,5.412-1.041,6.869,16.86,1.457,17.9,0,1.457-6.036,0-6.452S831,709.359,831,709.359Z" transform="translate(-732.752 -627.805)"/><circle class="c" cx="4.787" cy="4.787" r="4.787" transform="translate(100.953 47.418)"/><path class="g" d="M845.987,526.494l4.163-.833s1.041,3.33,4.371,2.706,4.163-2.706,4.163-2.706,2.5,1.041,2.706,1.041,2.914,1.041,2.914,1.665-3.122,6.869-3.122,6.869l.416,11.24-15.4-.416,1.041-11.032Z" transform="translate(-747.74 -466.796)"/><path class="c" d="M822.463,576.22s-1.249,11.032-.416,11.864,4.163,3.122,4.163,3.122v-2.5l-1.665-3.122,1.665-7.285Z" transform="translate(-726.505 -511.11)"/><path class="c" d="M971.6,573.692s-.729,11.344-.729,11.76a4.709,4.709,0,0,1-2.5,1.873c-.624,0-1.041-1.041-1.041-1.041l1.457-1.665-1.041-8.534Z" transform="translate(-854.097 -508.894)"/><path class="b" d="M917.181,686.205s9.366-5.2,9.575,0-4.787,7.285-4.787,7.285-12.9,3.87-13.425,2.455-1.561-3.7-.728-3.912,1.873-.624,2.29-.208,5.62-3.122,5.62-3.122Z" transform="translate(-801.658 -605.484)"/><path class="h" d="M979.9,697.562a11.841,11.841,0,0,0-2.5,1.457,16.134,16.134,0,0,1-3.33,1.665" transform="translate(-860.005 -617.465)"/><path class="g" d="M823.047,532.819,821.8,532.4s-4.579,4.787-3.122,6.036,2.29,1.665,2.706,2.081a7.2,7.2,0,0,0,2.5.624Z" transform="translate(-723.551 -472.704)"/><path class="g" d="M958.445,544.2l1.873.416a30.564,30.564,0,0,0,1.873,3.538c.416.416-.624.208-1.249,1.041s-1.249,2.29-2.5,2.29-2.914-2.081-2.914-2.081Z" transform="translate(-843.754 -483.044)"/><path class="b" d="M771.623,696.547s-7.909-5.62-10.615-1.457,11.656,9.783,13.738,10.615,3.955,1.665,3.955,1.665a39.766,39.766,0,0,0,1.873-5.412c0-.833-1.457-.833-1.873-.833s-2.29-.416-2.706-1.041A46.793,46.793,0,0,0,771.623,696.547Z" transform="translate(-672.959 -613.952)"/><path class="h" d="M813.966,705.988a12.047,12.047,0,0,0,3.955,2.081,3.869,3.869,0,0,1,2.5,1.457" transform="translate(-719.674 -624.85)"/><path class="e" d="M837.731,634.645l.166,8.813a1.1,1.1,0,0,0,1.115,1.082l16.4-.184a1.1,1.1,0,0,0,1.089-1.04l.5-8.629a1.1,1.1,0,0,0-1.1-1.167H838.834a1.1,1.1,0,0,0-1.1,1.124Z" transform="translate(-740.503 -561.333)"/><path class="b" d="M890.43,423.04s.267.889-1.245,1.689-1.956,3.823-.178,4.713,2.312,2.045,1.423,2.845-2.49,2.934-.356,3.468,2.4,1.6,1.778,2.045,1.423-.8,1.423-.8.356,2.134,2.223,1.6,3.73-10.231,1.649-12.729C895.212,423.549,890.43,423.04,890.43,423.04Z" transform="translate(-784.434 -376.848)"/><path class="b" d="M904.13,411.319c0-1.3,3.9-.367,5.569,1.452,1.157,1.26,2.915,3.154,1.442,4.49s2.524,3.087,3.6,3.618,3.189,2.154,1.277,3.243-1.88,2.189-1.161,2.449-1.586-.387-1.586-.387.233,2.151-1.709,2.141-7.513-10.683-6.182-13.649C906.614,411.917,904.13,411.319,904.13,411.319Z" transform="translate(-798.702 -366.043)"/><path class="b" d="M870.267,413.191c-5.212-.314-5.735,3.609-5.735,3.609.036,2.27,3.641,1.164,4.643,1.5,1.208-.869,3.537-2.513,5.2-3.687a7.876,7.876,0,0,0-4.11-1.425Z" transform="translate(-763.994 -368.2)"/><path class="i" d="M658.105,347.724s-4.675-21.91-33.936-37.8" transform="translate(-553.318 -277.699)"/><path class="j" d="M573.2,254.891l.059.24-1.184.287.373,1.16-.235.075-.454-1.412Z" transform="translate(-501.144 -223.148)"/><path class="g" d="M66.675,752.524c0,2.775-1.65,3.744-3.685,3.744l-.141,0c-.094,0-.188-.006-.28-.013-1.837-.13-3.264-1.149-3.264-3.73,0-2.671,3.413-6.041,3.669-6.29h0l.015-.014S66.675,749.749,66.675,752.524Z" transform="translate(-58.218 -660.113)"/><path class="j" d="M77.542,755.844l1.348-1.883-1.351,2.09,0,.216c-.094,0-.188-.006-.28-.013l.145-2.776v-.022l0,0,.014-.262-1.354-2.1,1.359,1.9,0,.056.11-2.1-1.16-2.165,1.174,1.8.114-4.349v0l-.019,3.429L78.8,748.3l-1.159,1.655-.031,1.878,1.078-1.8L77.6,752.113l-.017,1.044,1.565-2.509-1.571,2.873Z" transform="translate(-72.904 -660.113)"/><path class="b" d="M210.494,787.294l.788-.586s.522,2.914-.06,3.351-2.765,1.164-2.765,2.038-4.949,2.038-5.094.728a2.886,2.886,0,0,1,.437-2.038s2.329-2.329,2.62-2.765,1.019-1.31,1.019-1.31Z" transform="translate(-184.463 -695.602)"/><path class="b" d="M167,486.652s.022.128.06.362c.035.208.083.5.141.865.611,3.73,2.394,14.712,2.273,15.074-.146.437-1.164,2.038,0,2.474a.9.9,0,0,1,.362.394,8.459,8.459,0,0,1,.616,1.453,63.823,63.823,0,0,1,1.866,7.471c.188.981.316,1.77.354,2.183a1.188,1.188,0,0,1,0,.288c-.146.582.873,2.62,1.31,3.2s1.164,1.164,1.019,1.747,3.639,2.183,4.075,1.164a18.577,18.577,0,0,0,.582-1.892c.146-.291.291-2.329-.437-2.62s-.291-5.385-1.019-6.4a13.985,13.985,0,0,1-1-2.869c-.153-.541-.307-1.118-.458-1.7-.614-2.368-1.159-4.751-1.159-4.751l.146-17.029-8.005-1.019-.205.453-.409.9Z" transform="translate(-152.608 -431.2)"/><path class="b" d="M124.777,720.605s-1.164-1.164-1.747,0-1.164,5.676-2.183,6.7-2.329,6.113-.873,6.4,3.056-.437,3.2-1.31,3.2-5.385,3.2-5.822-2.038-2.038-2.038-2.038Z" transform="translate(-110.826 -637.209)"/><path class="b" d="M173.852,430.361s-1.892,17.029-2.329,18.63a60.637,60.637,0,0,1-3.493,8.733c-.728,1.019-5.385,9.315-5.967,9.752s-1.747,1.6-1.747,1.6-2.183,2.183-2.474,2.62-2.765-.873-2.911-1.747a8.975,8.975,0,0,1,.291-2.911c.146-.582-.291-1.455.146-1.892s2.62-2.62,2.62-3.639,3.784-6.986,5.24-8.3a4.342,4.342,0,0,0,1.164-3.493V440.84l-8.005-2.474s.437-6.986,1.455-6.986S172.251,429.051,173.852,430.361Z" transform="translate(-141.998 -382.915)"/><circle class="k" cx="4.803" cy="4.803" r="4.803" transform="translate(15.261 13.534)"/><path class="k" d="M180.471,210.559s.582,2.183,1.31,2.765-1.892,3.056-1.892,3.056l-4.949.291-.873-2.765s1.6-3.2,1.164-5.24S180.471,210.559,180.471,210.559Z" transform="translate(-158.805 -188.437)"/><path class="g" d="M176.311,248.18s-1.31.146-1.6.582a5.216,5.216,0,0,1-3.93,1.455c-1.6-.291-2.62-.728-2.911-.582s-.873,3.2-.873,3.2l1.6,4.658-.291,12.808-.437,3.493s-.873-1.164,2.62-.437,8.005-.582,9.461-.728,3.93-.582,4.075-1.455a23.025,23.025,0,0,0-.437-4.075l-2.329-9.752-1.455-5.24Z" transform="translate(-152.608 -223.584)"/><path class="l" d="M231.271,240.644s1.231-.653,1.668-.071,5.967,1.455,5.967,1.892,1.164,12.226.873,13.245a2.966,2.966,0,0,0,.582,2.183l1.019,4.366s2.765,8.3,1.6,8.587a7.579,7.579,0,0,1-2.62,0c-.437,0-.291-5.531-1.455-6.986a32.743,32.743,0,0,1-3.056-5.822c-.291-.728-3.93-10.77-3.784-11.935A31.847,31.847,0,0,0,231.271,240.644Z" transform="translate(-208.945 -216.705)"/><path class="l" d="M138.934,248.18s-1.164,0-1.31.291a15.925,15.925,0,0,1-2.183,2.62c-.582.437-2.62,2.329-2.62,2.765s4.221,3.639,4.221,3.639,1.747,8.587.873,11.5-2.183,9.9-1.6,10.334,1.892.582,1.892,0,.873-6.841,1.6-8.151,2.911-9.606,2.038-11.935S138.934,248.18,138.934,248.18Z" transform="translate(-122.654 -223.584)"/><path class="k" d="M264.536,364.847s.146,4.512-1.455,6.841a27.659,27.659,0,0,0-2.62,4.949s-2.62-.728-3.056-1.6-3.2-.146-3.2-.437,3.348-1.747,3.639-2.038,1.31-.291,1.892-.873a3.853,3.853,0,0,0,.728-1.892l.582-3.784Z" transform="translate(-229.044 -325.842)"/><path class="b" d="M171.352,141.652a2.768,2.768,0,0,0,1.077-.247,1.442,1.442,0,0,0,.369-2.136,2.759,2.759,0,0,0-.512-.411l-1.106-.753a5.412,5.412,0,0,0-1.561-.829,4.873,4.873,0,0,0-1.6-.094,10.781,10.781,0,0,0-3.057.556,5.115,5.115,0,0,0-2.477,1.812,5.444,5.444,0,0,0-.434,4.748,16.1,16.1,0,0,0,2.462,4.262l.5-2.445a.9.9,0,0,1,.283-.585c.45-.32,1,.337,1.553.333a.93.93,0,0,0,.787-.623,3.552,3.552,0,0,0,.175-1.046,2.863,2.863,0,0,1,1.037-2.2A6.561,6.561,0,0,1,171.352,141.652Z" transform="translate(-147.98 -126.276)"/><path class="d" d="M231.087,498.648s-.492,14.219-.783,14.655,0-14.7,0-14.7Z" transform="translate(-207.984 -443.079)"/><path class="l" d="M283.664,257.607h1.164s4.949,6.7,4.366,7.132,0,1.6,0,1.6l1.164,2.183s1.455,1.31,1.019,1.6a5.319,5.319,0,0,0-1.019,1.455s-2.911-.437-3.784,1.31l-1.888-2.383Z" transform="translate(-254.867 -231.847)"/><rect class="b" width="4.323" height="8.055" transform="translate(25.213 29.563) rotate(-22.438)"/><ellipse class="g" cx="0.865" cy="0.794" rx="0.865" ry="0.794" transform="translate(27.335 31.142) rotate(-22.438)"/><path class="k" d="M169.964,307.474s-10.479,8.733-12.226,5.967,1.892-5.094,1.892-5.094a12.82,12.82,0,0,0,6.841-2.183l3.639-1.6s3.322-4.742,4.454-2.937S172.631,306.576,169.964,307.474Z" transform="translate(-144.078 -270.071)"/><path class="l" d="M130.29,289.426l-1.6.582v4.366l-.582.873a5.389,5.389,0,0,0,.582,2.183c.437.437,1.31.291,1.019,1.31a5.516,5.516,0,0,0-.146,2.038s2.62,3.348,2.765,2.911,2.183-5.822,2.474-5.822-2.911-8.442-2.911-8.442Z" transform="translate(-118.522 -259.736)"/><path class="b" d="M278.793,449.994s1.5-1.455.752-1.528-3.372-1.528-3.809-.8S278.793,449.994,278.793,449.994Z" transform="translate(-247.885 -398.254)"/><ellipse class="m" cx="2.5" cy="1" rx="2.5" ry="1" transform="translate(57.047 21.586)"/><path class="i" d="M496.7,215.526a19.474,19.474,0,0,0-14.2,0v-5.8a24.583,24.583,0,0,1,14.2,0Z" transform="translate(-429.146 -188.957)"/><path class="i" d="M508.751,219.34a14.055,14.055,0,0,0-10.251,0V215.15a17.742,17.742,0,0,1,10.251,0Z" transform="translate(-443.169 -193.971)"/><ellipse class="i" cx="2" cy="1" rx="2" ry="1" transform="translate(58.047 21.586)"/><ellipse class="m" cx="2.1" cy="1.112" rx="2.1" ry="1.112" transform="matrix(0.98, -0.2, 0.2, 0.98, 58.572, 29.179)"/><path class="i" d="M505.887,266a19.474,19.474,0,0,0-13.916,2.84l-1.161-5.688a24.582,24.582,0,0,1,13.916-2.84Z" transform="translate(-436.429 -234.132)"/><path class="i" d="M518.041,271.116A14.055,14.055,0,0,0,508,273.166l-.838-4.1a17.742,17.742,0,0,1,10.044-2.05Z" transform="translate(-450.759 -240.025)"/><ellipse class="i" cx="2.1" cy="1.112" rx="2.1" ry="1.112" transform="matrix(0.98, -0.2, 0.2, 0.98, 59.199, 28.547)"/><ellipse class="m" cx="1.112" cy="2.1" rx="1.112" ry="2.1" transform="translate(58.244 37.72) rotate(-86.019)"/><path class="i" d="M501.881,328.649a19.474,19.474,0,0,0-14.169-.986l.4-5.791a24.583,24.583,0,0,1,14.169.986Z" transform="translate(-433.714 -287.639)"/><path class="i" d="M514.575,332.433a14.055,14.055,0,0,0-10.226-.712l.291-4.179a17.742,17.742,0,0,1,10.226.712Z" transform="translate(-448.296 -292.757)"/><ellipse class="i" cx="1.112" cy="2.1" rx="1.112" ry="2.1" transform="translate(59.018 37.278) rotate(-86.019)"/><path class="i" d="M355,263.874s-9.077-1.242-15.56,2.557" transform="translate(-303.754 -237.17)"/><path class="j" d="M287.525,224.459l.236.075-.369,1.161,1.185.283-.058.24-1.443-.345Z" transform="translate(-251.621 -196.475)"/></g></svg>