<svg xmlns="http://www.w3.org/2000/svg" width="111.667" height="92.695" viewBox="0 0 111.667 92.695"><defs><style>.a{fill:#3f3d56;}.b{fill:#fff;}.c{fill:#ccc;}.d{fill:#6c63ff;}.e{fill:#e6e6e6;}.f{fill:#feb8b8;}.g{opacity:0.1;}.h{fill:#2f2e41;}.i{fill:#a0616a;}.j{fill:#cbcbcb;}</style></defs><g transform="translate(0)"><path class="a" d="M584.091,183.949h.509V170a8.075,8.075,0,0,1,8.075-8.075h29.56A8.075,8.075,0,0,1,630.311,170V246.54a8.075,8.075,0,0,1-8.075,8.075h-29.56a8.075,8.075,0,0,1-8.075-8.075V193.88h-.509Z" transform="translate(-530.817 -161.921)"/><path class="b" d="M603.972,174.98h3.859a2.865,2.865,0,0,0,2.653,3.947h16.935a2.865,2.865,0,0,0,2.653-3.947h3.6a6.031,6.031,0,0,1,6.031,6.031v76.432a6.031,6.031,0,0,1-6.031,6.031h-29.7a6.031,6.031,0,0,1-6.031-6.031h0V181.011a6.031,6.031,0,0,1,6.031-6.031h0Z" transform="translate(-542.439 -172.879)"/><circle class="c" cx="6.848" cy="6.848" r="6.848" transform="translate(69.536 56.898)"/><circle class="b" cx="6.507" cy="6.507" r="6.507" transform="translate(69.877 57.239)"/><path class="d" d="M710.292,545.709l-2.049-2.635,1.192-.927.97,1.248,3.279-3.461,1.1,1.039Z" transform="translate(-634.995 -479.117)"/><path class="d" d="M625.189,631.283l3.96-1.848v1.056h9.239v1.584h-9.239v1.056Z" transform="translate(-565.303 -554.219)"/><path class="d" d="M755.728,631.283l-3.96-1.848v1.056h-9.239v1.584h9.239v1.056Z" transform="translate(-663.765 -554.219)"/><rect class="e" width="32.077" height="33.689" transform="translate(60.298 14.309)"/><g transform="translate(69.536 16.521)"><path class="e" d="M687.6,427.866l-2.432,3.784h1.757Z" transform="translate(-685.17 -401.601)"/><circle class="f" cx="3.514" cy="3.514" r="3.514" transform="translate(1.757 1.806)"/><path class="a" d="M696.241,321.192a6.449,6.449,0,0,0-2.432,1.487,4.624,4.624,0,0,1-2.7,1.081,5.738,5.738,0,0,0-2.3,2.568,7.81,7.81,0,0,0,0,4.73,12.175,12.175,0,0,1,.541,3.784l-.676,6.216s-2.432,2.3-.541,2.568,5.27-.135,7.3,0,4.324.405,3.649-.946-1.487-2.3-.676-5c.635-2.115.607-10.023.565-13.362a2.688,2.688,0,0,0-1.306-2.272Z" transform="translate(-687.051 -312.089)"/><path class="f" d="M705.772,449.705a8.746,8.746,0,0,0-.676,2.162c-.473,6.284,2.973,0,2.973,0v-1.081Z" transform="translate(-701.853 -419.926)"/><path class="g" d="M708.258,347.65l.405,8.243-3.928,7.956-.666-.254,4.054-7.433Z" transform="translate(-701.028 -334.29)"/><path class="a" d="M713.81,331.054l1.014-.2a6.592,6.592,0,0,1,2.095,6.689c-.946,4.46-5.135,11.216-5.135,11.216s-.946,1.216-1.216,1.487-.811,0-.541.405-.405.676-.405.676-2.973,0-2.7-1.081,4.865-8.784,4.865-8.784l-.676-7.162S710.566,330.783,713.81,331.054Z" transform="translate(-703.404 -320.194)"/><path class="g" d="M733.866,404.873v-.946l-4.594,7.568Z" transform="translate(-722.177 -381.513)"/><path class="h" d="M696.56,266.675l-.581-.232a3.962,3.962,0,0,1,2.9-1.221l-.475-.523a2.02,2.02,0,0,1,2.218.756,10.308,10.308,0,0,1,1.6,2.246h.622l-.26.572.909.572-.933-.1a3.163,3.163,0,0,1-.088,1.48l.025.452a13.925,13.925,0,0,1-1.081-1.905v.581s-.581-.523-.581-.872l-.317.407-.158-.64-1.954.64.317-.523-1.215.174.475-.64s-1.373.756-1.426,1.4a3.439,3.439,0,0,1-.739,1.454l-.317-.581S695.028,267.548,696.56,266.675Z" transform="translate(-693.782 -264.612)"/></g><g transform="translate(10.547 31.152)"><path class="h" d="M403.116,358.94a4.84,4.84,0,0,0-2.859-3.2c-1.4-.48-3.844-.031-4.5,1.3-.952,1.92-.524,4.27-.019,6.355.263-.014.529-.025.8-.035l.377-1.256v1.244c2.079-.064,4.244-.024,6.411.018A10.314,10.314,0,0,0,403.116,358.94Z" transform="translate(-382.851 -355.551)"/><path class="i" d="M325.707,677.6l1.749.733,3.66-6.4-2.582-1.082Z" transform="translate(-324.55 -620.128)"/><path class="h" d="M318.517,710.35l5.64,2.364.03-.071a2.381,2.381,0,0,0-1.275-3.116h0l-3.445-1.444Z" transform="translate(-318.517 -651.366)"/><path class="i" d="M449.638,455.634a1.312,1.312,0,0,0-.532-1.94l-3.76-11.346-2.518,1.343,4.488,10.73a1.319,1.319,0,0,0,2.323,1.213Z" transform="translate(-422.828 -428.384)"/><path class="i" d="M456.341,687.28h1.9l.9-7.316h-2.8Z" transform="translate(-434.167 -627.771)"/><path class="h" d="M453.337,724.042h6.116v-.077a2.381,2.381,0,0,0-2.38-2.381h-3.736Z" transform="translate(-431.647 -662.695)"/><path class="i" d="M406.835,462.313l-.43,1.117.086,1.117,8.252-1.031-.257-.946-.945-1.117Z" transform="translate(-392.265 -444.416)"/><circle class="i" cx="3.004" cy="3.004" r="3.004" transform="translate(14.225 1.834)"/><path class="e" d="M395.946,419.184l8.182-.87.354-1.159a4.732,4.732,0,0,0,.918-3.094,2.563,2.563,0,0,0-1.107-1.716l-1.989-2.329-1.75-1.042-3.45-.345-.012,0-3.1.7.038,5.678Z" transform="translate(-381.852 -400.089)"/><path class="e" d="M444.355,426.941l2.292-.272-.006-.072c-.021-.253-.522-6.215-1.036-7.584-.524-1.4-2.8-1.834-2.893-1.852l-.028-.005-.5.3,1.393,4.354Z" transform="translate(-422.285 -407.244)"/><path class="h" d="M343.505,475.257v1.887s-2.21,2.871-1.019,5.081c0,0-2.549,4.759-2.719,6.458l-2.381,7.818s-5.948,5.948-5.438,10.2l-.34,1.36,3.909,1.7.85-1.19L343,497.181l5.608-10.367,1.02,12.237s-.68,9.517,1.19,10.538l.17,1.53h3.967v-1.454s1.471-5.174.622-9.083l.34-16.485s-1.53-6.968-3.4-8.158l-.68-1.7Z" transform="translate(-329.502 -455.142)"/><path class="i" d="M381.79,473.479a1.356,1.356,0,0,0-.2.063l-5.245-3.61.12-1.542-2.3-.485-.478,2.709a1.027,1.027,0,0,0,.557,1.1l6.5,3.2a1.348,1.348,0,1,0,1.056-1.438Z" transform="translate(-364.792 -449.829)"/><path class="e" d="M376.559,423.349l1.067-7.121.876-3.679-1.309-.274a2.4,2.4,0,0,0-1.963.207,2.839,2.839,0,0,0-1.02,2.356l-.347,8.148Z" transform="translate(-364.96 -403.047)"/><path class="h" d="M408.512,358.432a3.773,3.773,0,0,0-5.737,3.293c1.679.077,3.443.1,5.232.1l.423-1.035.249,1.035,1.638,0A3.853,3.853,0,0,0,408.512,358.432Z" transform="translate(-389.219 -357.505)"/></g><path class="j" d="M253.251,736.4H364.334c.161,0,.292-.072.292-.161s-.131-.161-.292-.161H253.251c-.161,0-.292.072-.292.161S253.089,736.4,253.251,736.4Z" transform="translate(-252.959 -643.706)"/></g></svg>