<svg xmlns="http://www.w3.org/2000/svg" width="123.349" height="83.898" viewBox="0 0 123.349 83.898"><defs><style>.a{fill:#e6e6e6;}.b{fill:#fff;}.c,.d{fill:#6c63ff;}.d{opacity:0.997;}.e{fill:#2f2e41;}.f{fill:#feb8b8;}.g{fill:#ccc;}.h{fill:#3f3d56;}</style></defs><g transform="translate(0 0)"><rect class="a" width="93.217" height="44.233" transform="translate(15.947 39.4)"/><rect class="b" width="87.886" height="36.905" transform="translate(18.613 43.193)"/><rect class="a" width="2.276" height="2.276" transform="translate(89.526 50.062)"/><rect class="c" width="2.276" height="2.276" transform="translate(28.822 50.062)"/><rect class="a" width="7.586" height="7.586" transform="translate(28.757 56.581)"/><rect class="c" width="93.217" height="3.96" transform="translate(15.907 36.844)"/><circle class="b" cx="0.734" cy="0.734" r="0.734" transform="translate(18.116 38.969)"/><circle class="b" cx="0.734" cy="0.734" r="0.734" transform="translate(20.902 38.969)"/><circle class="b" cx="0.734" cy="0.734" r="0.734" transform="translate(23.688 38.969)"/><rect class="a" width="123.349" height="0.265" transform="translate(0 83.633)"/><rect class="a" width="18.586" height="1.067" transform="translate(44.211 57.34)"/><rect class="c" width="28.701" height="1.067" transform="translate(44.211 61.232)"/><rect class="a" width="23.39" height="1.067" transform="translate(44.211 64.898)"/><rect class="a" width="13.655" height="1.067" transform="translate(44.211 68.551)"/><rect class="a" width="20.609" height="1.067" transform="translate(44.211 72.204)"/><rect class="a" width="2.276" height="2.276" transform="translate(93.445 50.062)"/><rect class="a" width="2.276" height="2.276" transform="translate(97.365 50.062)"/><circle class="d" cx="4.622" cy="4.622" r="4.622" transform="translate(90.397 60.374)"/><circle class="e" cx="5.203" cy="5.203" r="5.203" transform="translate(19.77 2.108)"/><path class="f" d="M203.235,467.054h-2.279l-1.084-8.788h3.362Z" transform="translate(-191.211 -415.221)"/><path class="e" d="M177.661,519.677h4.394v2.767h-7.16A2.767,2.767,0,0,1,177.661,519.677Z" transform="translate(-169.542 -468.496)"/><path class="f" d="M184.178,453.5,182,452.82l1.6-8.709,3.208,1.007Z" transform="translate(-175.71 -402.942)"/><path class="e" d="M149.04,500.647l4.192,1.316-.828,2.64-6.832-2.144a2.767,2.767,0,0,1,3.468-1.811h0Z" transform="translate(-144.105 -451.877)"/><path class="e" d="M187.568,368.227a.829.829,0,0,1-.291-.053l-1.677-.628a.839.839,0,0,1-.523-.963c.422-1.9,1.86-8.357,2.648-11.822.934-4.11,14.559-4.873,15.138-4.9l.048,0,1.533,1.925c.554,1.78.378,3.169-.522,4.127-2.626,2.8-10.468,1.061-11.4.842l-4.168,10.941a.839.839,0,0,1-.783.538Z" transform="translate(-178.359 -321.173)"/><path class="e" d="M205.805,378.044a.829.829,0,0,1-.291-.053l-1.676-.629a.839.839,0,0,1-.523-.963c.422-1.9,1.86-8.357,2.648-11.822.934-4.11,14.559-4.873,15.138-4.9l.048,0,1.532,1.926c.554,1.78.378,3.169-.522,4.127-2.626,2.8-10.468,1.061-11.4.841l-4.168,10.94a.839.839,0,0,1-.783.538Z" transform="translate(-194.18 -329.689)"/><path class="f" d="M162.691,291.281a1.96,1.96,0,0,1,.164.26l9.165.966,1.32-1.809,2.99,1.634-2.591,4.39L162.5,293.856a1.951,1.951,0,1,1,.193-2.575Z" transform="translate(-155.916 -269.691)"/><path class="g" d="M282,261.018a.837.837,0,0,1-.381-.093,27.224,27.224,0,0,0-8.711-2.884.817.817,0,0,1-.575-.325.84.84,0,0,1-.155-.652,51.235,51.235,0,0,0,.9-9.236,4.571,4.571,0,0,1,3.453-4.547h0a14.842,14.842,0,0,1,1.842-.363,4.608,4.608,0,0,1,5.121,5.345c-.59,3.5-1.185,8.379-.668,11.788a.838.838,0,0,1-.338.808A.823.823,0,0,1,282,261.018Z" transform="translate(-253.925 -228.373)"/><path class="g" d="M259.2,261.785a.835.835,0,0,1-.332-.069l-2.388-1.033a.837.837,0,0,1-.435-1.1l1.846-4.263a2.137,2.137,0,1,1,3.935,1.67l-.012.028-1.846,4.264a.838.838,0,0,1-.768.5Z" transform="translate(-239.878 -238.033)"/><circle class="f" cx="4.564" cy="4.564" r="4.564" transform="translate(20.219 3.965)"/><path class="e" d="M286.484,160.2a16.463,16.463,0,0,0,7.122,2.347l-.751-.9a5.516,5.516,0,0,0,1.7.338,1.866,1.866,0,0,0,1.521-.712,1.736,1.736,0,0,0,.116-1.6,3.288,3.288,0,0,0-1.034-1.294,6.158,6.158,0,0,0-5.732-1.024,3.681,3.681,0,0,0-1.712,1.1c-.433.534-1.266,1.009-1.044,1.66Z" transform="translate(-266.348 -153.908)"/><path class="e" d="M324.634,135.824a8.866,8.866,0,0,1,3.225-2.086,4.538,4.538,0,0,1,2.444-.3,2.329,2.329,0,0,1,1.814,1.528,2.888,2.888,0,0,1-.295,1.974c-.289.616-.674,1.187-.907,1.825a4.166,4.166,0,0,0,4.192,5.586,20.787,20.787,0,0,0-2.322.684,2.433,2.433,0,0,1-2.289-.374,3.115,3.115,0,0,1-.6-2.413l.133-3.811a4.842,4.842,0,0,0-.192-1.921,1.65,1.65,0,0,0-1.437-1.129,2.357,2.357,0,0,0-1.32.6,2.7,2.7,0,0,1-1.3.65c-.489.044-1.048-.318-1.011-.808" transform="translate(-299.443 -133.382)"/><path class="f" d="M250.261,306.146a2.045,2.045,0,1,1,.788-3.933h0a1.963,1.963,0,0,1,.244.123l8.314-3.732.234-2.255,3.584-.1-.024,3.754a2.022,2.022,0,0,1-1.461,1.922l-9.723,2.767a1.907,1.907,0,0,1-.066.189,2.053,2.053,0,0,1-1.889,1.26Z" transform="translate(-233.152 -274.674)"/><path class="g" d="M333.861,261.416a.836.836,0,0,1-.327.088l-2.6.16a.837.837,0,0,1-.886-.783l-.285-4.637a2.137,2.137,0,1,1,4.266-.262l.285,4.637a.838.838,0,0,1-.456.8Z" transform="translate(-303.892 -237.998)"/><rect class="h" width="15.982" height="1.301" rx="0.65" transform="translate(8.995 30.64)"/><path class="h" d="M157.4,297.811V288.7a1.209,1.209,0,0,1,1.208-1.208h16.539a1.209,1.209,0,0,1,1.208,1.208v9.106a1.209,1.209,0,0,1-1.208,1.208H158.613A1.209,1.209,0,0,1,157.4,297.811Z" transform="translate(-154.37 -267.078)"/><circle class="b" cx="1.115" cy="1.115" r="1.115" transform="translate(11.596 25.065)"/></g></svg>