<svg xmlns="http://www.w3.org/2000/svg" width="109.377" height="72.438" viewBox="0 0 109.377 72.438"><defs><style>.a{fill:#f2f2f2;}.b{fill:#fff;}.c{fill:#6c63ff;}.d{fill:#3f3d56;}.e{fill:#a0616a;}.f{fill:#2f2e41;}</style></defs><g transform="translate(0)"><path class="a" d="M863.515,484.049a8.9,8.9,0,0,1-2.832,2h0c-.1.047-.2.094-.3.137h-.009s0,0,0,0h0s0,0,0,0h0a17.916,17.916,0,0,1-2.187.782,30.341,30.341,0,0,1-13.476.7l-.256-.046v-10.4c.085-.036.171-.072.256-.106q.84-.348,1.7-.64,1.239-.423,2.512-.726a27.2,27.2,0,0,1,8.467-.685q.775.058,1.546.167a11.659,11.659,0,0,1,3.2.865h0c.145.068.287.138.428.214a4.807,4.807,0,0,1,2.08,2.037,3.924,3.924,0,0,1,.349,1.024v0c.026.123.043.247.058.371A5.7,5.7,0,0,1,863.515,484.049Z" transform="translate(-758.413 -435.572)"/><path class="b" d="M865.035,509.582a.174.174,0,0,1-.038.005q-3.294.144-6.58.428h0l-.026,0q-3.373.292-6.732.732l-.282.037q-2.323.31-4.637.687-1.021.167-2.039.349c-.086.015-.171.03-.256.046v-.388c.086-.017.172-.031.256-.046q3.389-.6,6.8-1.047.858-.115,1.718-.218,2.485-.3,4.977-.518l.364-.031q3.19-.271,6.39-.412a.122.122,0,0,1,.031,0C865.182,509.23,865.226,509.537,865.035,509.582Z" transform="translate(-758.413 -465.399)"/><path class="b" d="M907.36,525.727a10.5,10.5,0,0,1-7.367-3.06,9.98,9.98,0,0,1-1.434-1.8c-.13-.209-.436.022-.306.229a10.88,10.88,0,0,0,6.767,4.759,10.362,10.362,0,0,0,2.389.256C907.655,526.1,907.6,525.725,907.36,525.727Z" transform="translate(-805.299 -475.487)"/><path class="b" d="M848.911,480.95a.217.217,0,0,1-.16.145,8.361,8.361,0,0,0-1.805.705,8.769,8.769,0,0,0-2.248,1.7c-.035.035-.068.069-.1.105-.054.056-.105.114-.156.173v-.559c.082-.087.168-.173.256-.255a9.218,9.218,0,0,1,1.7-1.287Q847.637,481.253,848.911,480.95Z" transform="translate(-758.413 -440.763)"/><path class="b" d="M955.734,482.759a8.9,8.9,0,0,0-4.157,3.665.192.192,0,0,0,.1.25.2.2,0,0,0,.25-.1,8.469,8.469,0,0,1,3.948-3.46.191.191,0,0,0-.144-.354Z" transform="translate(-851.801 -442.325)"/><path class="a" d="M867.592,354.445a8.889,8.889,0,0,1-1.577,3.09h0c-.065.087-.133.176-.2.26h0a17.853,17.853,0,0,1-1.591,1.717,29.928,29.928,0,0,1-6.843,4.889,28.659,28.659,0,0,1-12.68,3.337h-.256v-5.827c.083-.159.169-.318.256-.476a28.142,28.142,0,0,1,4.107-5.618c.038-.042.078-.085.118-.126q.9-.95,1.887-1.809a27.028,27.028,0,0,1,8.627-5.109,11.61,11.61,0,0,1,3.232-.718c.16-.009.319-.013.479-.012a4.813,4.813,0,0,1,2.789.839,3.974,3.974,0,0,1,.785.745c.079.1.153.2.223.3h0A5.691,5.691,0,0,1,867.592,354.445Z" transform="translate(-758.412 -324.9)"/><path class="b" d="M866.943,360.607h0a.189.189,0,0,1-.031.022q-2.846,1.656-5.621,3.432l-.006,0-.023.014q-2.852,1.827-5.623,3.777l-.233.164q-1.914,1.352-3.787,2.762-3.539,2.665-6.922,5.528c-.086.072-.17.145-.256.218v-.5c.085-.073.171-.146.256-.218q1.3-1.094,2.615-2.158c.263-.212.527-.423.791-.632q3.519-2.8,7.2-5.4h0q.723-.51,1.449-1.01,2.062-1.419,4.169-2.771l.306-.2q2.7-1.723,5.467-3.333a.187.187,0,0,1,.028-.014C866.913,360.226,867.093,360.48,866.943,360.607Z" transform="translate(-758.412 -335.572)"/><path class="b" d="M940.263,419.459a10.5,10.5,0,0,1-7.945.712,9.98,9.98,0,0,1-2.108-.931c-.213-.125-.376.221-.165.345a10.88,10.88,0,0,0,8.2,1.071,10.356,10.356,0,0,0,2.235-.883C940.7,419.657,940.478,419.344,940.263,419.459Z" transform="translate(-832.956 -386.941)"/><path class="b" d="M868.638,401.812a8.788,8.788,0,0,1-.122-2.035A9.274,9.274,0,0,1,869.9,395.4q.9-.95,1.888-1.809a.218.218,0,0,1-.075.2,8.393,8.393,0,0,0-1.271,1.463,8.862,8.862,0,0,0-1.421,6.525.155.155,0,0,1-.04.147.208.208,0,0,1-.341-.115Z" transform="translate(-779.389 -364.603)"/><path class="b" d="M974.355,346.144a8.9,8.9,0,0,0-1.979,5.176.192.192,0,0,0,.206.175.2.2,0,0,0,.175-.206,8.468,8.468,0,0,1,1.889-4.9C974.8,346.2,974.511,345.952,974.355,346.144Z" transform="translate(-869.946 -323.18)"/><path class="a" d="M849.545,330.176h0c-.009.11-.019.219-.031.328v0a18.117,18.117,0,0,1-.417,2.3c-.09.372-.187.741-.294,1.11-.013.047-.027.095-.041.141h0a29.43,29.43,0,0,1-1.12,3.16,30.64,30.64,0,0,1-2.945,5.413c-.083.124-.169.249-.256.372V322.931c.086-.005.171-.005.256,0,.041,0,.082,0,.123,0a3.887,3.887,0,0,1,1.062.206c.121.04.237.085.353.135a5.691,5.691,0,0,1,2.974,3.45A8.906,8.906,0,0,1,849.545,330.176Z" transform="translate(-758.413 -303)"/><path class="b" d="M846.235,324.155a.141.141,0,0,1-.014.036q-.779,1.514-1.523,3.042c-.086.176-.172.353-.256.528v-.872q.127-.262.256-.523.575-1.165,1.169-2.321a.171.171,0,0,1,.015-.026C846,323.852,846.293,323.967,846.235,324.155Z" transform="translate(-758.414 -303.882)"/><path class="b" d="M849.586,379.379c-.023.041-.046.082-.072.123a10.231,10.231,0,0,1-1.336,1.826,11.016,11.016,0,0,1-3.481,2.535c-.085.041-.171.079-.256.115v-.417c.086-.038.172-.078.256-.119a10.368,10.368,0,0,0,4.535-4.208.211.211,0,0,1,.313-.06.148.148,0,0,1,.041.205Z" transform="translate(-758.413 -351.996)"/><path class="c" d="M259.726,171.731v9.744h-.256v-.1H173.7v.1h-.256v-9.744a4.235,4.235,0,0,1,4.231-4.231h77.823A4.235,4.235,0,0,1,259.726,171.731Z" transform="translate(-173.441 -167.5)"/><path class="d" d="M255.495,167.5H177.672a4.235,4.235,0,0,0-4.231,4.231v55.643a4.235,4.235,0,0,0,4.231,4.231h77.823a4.235,4.235,0,0,0,4.231-4.231V171.731A4.235,4.235,0,0,0,255.495,167.5Zm3.975,59.874a3.98,3.98,0,0,1-3.975,3.974H177.672a3.98,3.98,0,0,1-3.974-3.974V171.731a3.98,3.98,0,0,1,3.974-3.974h77.823a3.98,3.98,0,0,1,3.975,3.974Z" transform="translate(-173.441 -167.5)"/><circle class="b" cx="2.564" cy="2.564" r="2.564" transform="translate(14.872 4.423)"/><circle class="b" cx="2.564" cy="2.564" r="2.564" transform="translate(66.284 4.423)"/><path class="c" d="M246.93,362.831H231.676a2.44,2.44,0,0,1-2.437-2.437v-7.21a2.44,2.44,0,0,1,2.437-2.437H246.93a2.44,2.44,0,0,1,2.437,2.437v7.21A2.44,2.44,0,0,1,246.93,362.831Z" transform="translate(-222.085 -327.253)"/><path class="c" d="M449.328,362.831H434.074a2.44,2.44,0,0,1-2.437-2.437v-7.21a2.44,2.44,0,0,1,2.437-2.437h15.254a2.44,2.44,0,0,1,2.437,2.437v7.21A2.44,2.44,0,0,1,449.328,362.831Z" transform="translate(-398.534 -327.253)"/><path class="a" d="M448.826,507.117H433.572a2.514,2.514,0,0,1-2.511-2.511V497.4a2.514,2.514,0,0,1,2.511-2.511h15.254a2.514,2.514,0,0,1,2.511,2.511v7.21A2.514,2.514,0,0,1,448.826,507.117Z" transform="translate(-398.032 -452.911)"/><path class="a" d="M246.037,507.117H230.783a2.514,2.514,0,0,1-2.511-2.511V497.4a2.514,2.514,0,0,1,2.511-2.511h15.254a2.514,2.514,0,0,1,2.511,2.511v7.21A2.514,2.514,0,0,1,246.037,507.117Z" transform="translate(-221.242 -452.911)"/><path class="a" d="M651.225,507.117H635.971a2.514,2.514,0,0,1-2.511-2.511V497.4a2.514,2.514,0,0,1,2.511-2.511h15.254a2.514,2.514,0,0,1,2.511,2.511v7.21A2.514,2.514,0,0,1,651.225,507.117Z" transform="translate(-574.481 -452.911)"/><path class="a" d="M651.225,361.939H635.971a2.514,2.514,0,0,1-2.511-2.511v-7.21a2.514,2.514,0,0,1,2.511-2.511h15.254a2.514,2.514,0,0,1,2.511,2.511v7.21A2.514,2.514,0,0,1,651.225,361.939Z" transform="translate(-574.481 -326.346)"/><circle class="b" cx="4.136" cy="4.136" r="4.136" transform="translate(13.082 25.4)"/><path class="c" d="M294.993,388.79a.429.429,0,0,1-.258-.086l0,0-.972-.744a.432.432,0,1,1,.525-.686l.63.483,1.488-1.94a.432.432,0,0,1,.605-.08l-.009.013.009-.012a.432.432,0,0,1,.08.605l-1.75,2.282A.432.432,0,0,1,294.993,388.79Z" transform="translate(-278.185 -357.676)"/><circle class="b" cx="4.136" cy="4.136" r="4.136" transform="translate(39.105 25.34)"/><path class="c" d="M497.968,388.327a.429.429,0,0,1-.258-.086l0,0-.972-.744a.432.432,0,1,1,.525-.686l.63.483,1.488-1.94a.432.432,0,0,1,.605-.08l-.009.013.009-.012a.432.432,0,0,1,.08.605l-1.75,2.282a.432.432,0,0,1-.344.169Z" transform="translate(-455.137 -357.273)"/><path class="e" d="M692.053,451.573a1.377,1.377,0,0,0-.28-2.093l-2.309-12.33-2.808,1.041,3.153,11.793a1.385,1.385,0,0,0,2.245,1.589Z" transform="translate(-620.857 -402.578)"/><path class="e" d="M534.182,393.949a1.465,1.465,0,0,1,0,.23l5.46,4.2,1.548-.636,1.265,2.211-2.632,1.392a1.111,1.111,0,0,1-1.318-.209l-5.458-5.627a1.458,1.458,0,1,1,1.131-1.565Z" transform="translate(-485.395 -363.769)"/><path class="e" d="M464.256,520.342h-1.572l-.748-4.781h2.32Z" transform="translate(-402.712 -449.461)"/><path class="f" d="M622.134,718.382h-5.068v-.064a1.973,1.973,0,0,1,1.973-1.973h3.1Z" transform="translate(-560.189 -645.978)"/><path class="e" d="M510.256,520.342h-1.572l-.748-4.781h2.32Z" transform="translate(-442.814 -449.461)"/><path class="f" d="M668.134,718.382h-5.068v-.064a1.973,1.973,0,0,1,1.973-1.973h3.1Z" transform="translate(-600.291 -645.978)"/><path class="f" d="M625.449,578.858a.576.576,0,0,1-.574-.522l-1.37-18.422.065-.005,9.426-.775,0,.067.749,19.084a.577.577,0,0,1-.577.6h-1.848a.574.574,0,0,1-.57-.489l-2.51-15.417a.064.064,0,0,0-.127.009L628,578.208a.577.577,0,0,1-.547.572l-1.976.077Z" transform="translate(-565.804 -508.923)"/><circle class="e" cx="3.149" cy="3.149" r="3.149" transform="translate(58.106 21.411)"/><path class="d" d="M621.605,417.845a15.519,15.519,0,0,1-4.073-.557.578.578,0,0,1-.415-.6c.424-6.371.524-11.315-.368-14.736a5.744,5.744,0,0,1,.473-4.213,5.545,5.545,0,0,1,4.916-2.913h0q.144,0,.291.01a5.8,5.8,0,0,1,5.294,6.147l-.613,15.407a.569.569,0,0,1-.361.518,14.648,14.648,0,0,1-5.144.938Z" transform="translate(-559.741 -365.679)"/><path class="d" d="M604.966,416.434l-2.359-2.89a.739.739,0,0,1,.194-1.1l3.2-1.9a2.051,2.051,0,0,1,2.585,3.186l-2.5,2.74a.739.739,0,0,1-1.118-.031Z" transform="translate(-547.439 -378.979)"/><path class="d" d="M668.7,409.612a.738.738,0,0,1-.406-.462l-1.062-3.552a2.051,2.051,0,1,1,3.711-1.75l2.053,3.1a.739.739,0,0,1-.3,1.077l-3.379,1.582A.738.738,0,0,1,668.7,409.612Z" transform="translate(-603.75 -372.519)"/><path class="f" d="M622.913,336.259l-2.334-.534c-.241-.055-.53-.16-.563-.4-.045-.329.428-.558.385-.887s-.473-.36-.781-.454a1.168,1.168,0,0,1-.727-1.454,1.073,1.073,0,0,1-1.524.129,1.349,1.349,0,0,1-.255-1.582,1.832,1.832,0,0,1,1.375-.928,2.9,2.9,0,0,1,1.67.311c.034-.363.488-.511.853-.514a3.645,3.645,0,0,1,3.416,2.493,3.334,3.334,0,0,1-1.1,3.868Z" transform="translate(-560.102 -309.115)"/><path class="d" d="M513.7,730.756H464.857a.128.128,0,0,1,0-.256H513.7a.128.128,0,1,1,0,.256Z" transform="translate(-427.384 -658.318)"/></g></svg>