<svg xmlns="http://www.w3.org/2000/svg" width="133" height="82.98" viewBox="0 0 133 82.98"><defs><style>.a{fill:#e6e6e6;}.b{fill:#fff;}.c{fill:#3f3d56;}.d{fill:#6c63ff;}.e{fill:#ffb8b8;}.f{fill:#575a89;}.g{fill:#2f2e41;}</style></defs><g transform="translate(-0.243)"><rect class="a" width="28" height="50" transform="translate(92.243 16.078)"/><path class="b" d="M788,343.344h22.217V298.61H788Z" transform="translate(-693.036 -279.846)"/><rect class="a" width="6.488" height="0.603" transform="translate(103.504 28.359)"/><rect class="a" width="11.309" height="0.603" transform="translate(103.504 30.443)"/><rect class="a" width="11.298" height="0.603" transform="translate(103.504 32.527)"/><rect class="a" width="4.82" height="4.82" transform="translate(97.339 28.368)"/><rect class="a" width="6.488" height="0.603" transform="translate(103.504 38.717)"/><rect class="a" width="11.309" height="0.603" transform="translate(103.504 40.801)"/><rect class="a" width="11.298" height="0.603" transform="translate(103.504 42.885)"/><rect class="a" width="4.82" height="4.82" transform="translate(97.339 38.725)"/><rect class="a" width="6.488" height="0.603" transform="translate(103.504 49.074)"/><rect class="a" width="11.309" height="0.603" transform="translate(103.504 51.159)"/><rect class="a" width="11.298" height="0.603" transform="translate(103.504 53.243)"/><rect class="a" width="4.82" height="4.82" transform="translate(97.339 49.083)"/><rect class="a" width="28" height="50" transform="translate(16.243 16.078)"/><path class="b" d="M280,343.344h22.217V298.61H280Z" transform="translate(-261.294 -279.846)"/><rect class="a" width="6.488" height="0.603" transform="translate(27.246 28.359)"/><rect class="a" width="11.309" height="0.603" transform="translate(27.246 30.443)"/><rect class="a" width="11.298" height="0.603" transform="translate(27.246 32.527)"/><rect class="a" width="4.82" height="4.82" transform="translate(21.081 28.368)"/><rect class="a" width="6.488" height="0.603" transform="translate(27.246 38.717)"/><rect class="a" width="11.309" height="0.603" transform="translate(27.246 40.801)"/><rect class="a" width="11.298" height="0.603" transform="translate(27.246 42.885)"/><rect class="a" width="4.82" height="4.82" transform="translate(21.081 38.725)"/><rect class="a" width="6.488" height="0.603" transform="translate(27.246 49.074)"/><rect class="a" width="11.309" height="0.603" transform="translate(27.246 51.159)"/><rect class="a" width="11.298" height="0.603" transform="translate(27.246 53.243)"/><rect class="a" width="4.82" height="4.82" transform="translate(21.081 49.083)"/><ellipse class="a" cx="66.5" cy="3" rx="66.5" ry="3" transform="translate(0.243 64.078)"/><rect class="c" width="37.196" height="67.851" transform="translate(49.349)"/><path class="b" d="M494.82,249.509H528.8v-64.4H494.82Z" transform="translate(-443.863 -183.384)"/><rect class="d" width="8.834" height="0.82" transform="translate(64.446 16.537)"/><rect class="a" width="15.396" height="0.82" transform="translate(64.446 19.374)"/><rect class="a" width="15.381" height="0.82" transform="translate(64.446 22.212)"/><rect class="d" width="6.563" height="6.563" transform="translate(56.052 16.549)"/><rect class="d" width="8.834" height="0.82" transform="translate(64.446 30.638)"/><rect class="a" width="15.396" height="0.82" transform="translate(64.446 33.476)"/><rect class="a" width="15.381" height="0.82" transform="translate(64.446 36.314)"/><rect class="d" width="6.563" height="6.563" transform="translate(56.052 30.651)"/><rect class="d" width="8.834" height="0.82" transform="translate(64.446 44.74)"/><rect class="a" width="15.396" height="0.82" transform="translate(64.446 47.578)"/><rect class="a" width="15.381" height="0.82" transform="translate(64.446 50.416)"/><rect class="d" width="6.563" height="6.563" transform="translate(56.052 44.752)"/><path class="e" d="M503.717,492.41l-.45,1.951s.15,4.5-1.051,4.053-.9-4.353-.9-4.353l1.051-1.951Z" transform="translate(-449.355 -444.299)"/><ellipse class="e" cx="3.5" cy="3" rx="3.5" ry="3" transform="translate(44.243 21.078)"/><path class="e" d="M455.8,337.11l-.3,4.353,3.753.45s0-3.6.3-4.053S455.8,337.11,455.8,337.11Z" transform="translate(-410.449 -312.566)"/><path class="f" d="M430.565,357.547l-4.861-2.059s-2.322-1.792-3.684-.467l-.612.874s-5.4,2.1-5.4,3.753l2.1,8.256s-1.2,4.654.6,4.954l9.757.9a3.377,3.377,0,0,0,.15-3.753l.45-4.954Z" transform="translate(-376.879 -327.374)"/><path class="f" d="M491,374.76l3.3-.15s1.051.3,1.8,3.152a43.127,43.127,0,0,1,.9,7.506l-1.8,8.406-2.252-.3.9-8.106-1.5-5.4Z" transform="translate(-440.62 -344.437)"/><path class="f" d="M407.607,381.61l-1.628.507s-1.374,2.045-1.374,3.1-.6,9.007-.6,9.007l3.9,6.455,1.2-3.152-2.4-4.053,1.952-4.954Z" transform="translate(-366.68 -350.386)"/><path class="g" d="M430.614,475.234l-10.793-.95a71.2,71.2,0,0,0-.916,9.506c.15,2.7.3,6.905.3,6.905L418,509.009l4.654-.6.6-15.162,1.951-8.256,2.252,10.508,1.5,13.51,4.053-.45L431.664,492.2S432.865,477.485,430.614,475.234Z" transform="translate(-378.579 -429.149)"/><path class="g" d="M495.006,697.61l1.351.45s2.852-.751,2.1,1.2a2.7,2.7,0,0,1-2.852,1.651s-2.552,1.951-3.6.45l.6-3.152Z" transform="translate(-441.47 -618.95)"/><path class="g" d="M422.006,697.61l1.351.45s2.852-.751,2.1,1.2a2.7,2.7,0,0,1-2.852,1.651s-2.552,1.951-3.6.45l.6-3.152Z" transform="translate(-379.428 -618.95)"/><path class="g" d="M446.3,311.91s-3.152-2.252-1.5-4.954c1.146-1.874,3.519-1.726,4.866-1.459a2.275,2.275,0,0,1,1.664,1.309c.225.525.225,1.051-.676,1.051-1.8,0-.9,1.351-.9,1.351s-1.2.3-.9,1.351S446.3,311.91,446.3,311.91Z" transform="translate(-400.941 -285.565)"/></g></svg>