<svg xmlns="http://www.w3.org/2000/svg" width="115.5" height="83.186" viewBox="0 0 115.5 83.186"><defs><style>.a{fill:#f1f1f1;}.b{fill:#fff;}.c{fill:#e5e5e5;}.d{fill:#3f3d56;}.e{fill:#6c63ff;}.f{fill:#ffb7b7;}.g{fill:#2f2e41;}.h{fill:#cbcbcb;}</style></defs><path class="a" d="M610.074,693.459a9.95,9.95,0,0,1-.465,2.751c-.006.021-.013.041-.02.062h-1.735c0-.019,0-.039.006-.062.116-1.33-.545-9.326-1.342-10.71C606.587,685.612,610.209,689.234,610.074,693.459Z" transform="translate(-547.922 -613.345)"/><path class="a" d="M623.89,728.665l-.045.062h-1.3l.035-.062c.215-.388.851-1.548,1.442-2.751a9.907,9.907,0,0,0,1.168-3.119A9.039,9.039,0,0,1,623.89,728.665Z" transform="translate(-561.868 -645.8)"/><path class="a" d="M975.311,718.774A6.591,6.591,0,0,1,975,720.6l-.013.041H973.84c0-.012,0-.026,0-.041.077-.881-.361-6.18-.89-7.1C973,713.574,975.4,715.975,975.311,718.774Z" transform="translate(-866.804 -637.711)"/><path class="a" d="M984.466,742.1l-.03.041h-.862l.023-.041c.142-.257.564-1.026.956-1.823a6.567,6.567,0,0,0,.774-2.067A5.991,5.991,0,0,1,984.466,742.1Z" transform="translate(-876.046 -659.218)"/><path class="a" d="M548.311,718.774A6.591,6.591,0,0,1,548,720.6l-.013.041H546.84c0-.012,0-.026,0-.041.077-.881-.361-6.18-.89-7.1C546,713.574,548.4,715.975,548.311,718.774Z" transform="translate(-495.218 -637.711)"/><path class="a" d="M557.466,742.1l-.03.041h-.862l.023-.041c.142-.257.564-1.026.955-1.823a6.567,6.567,0,0,0,.774-2.067A5.991,5.991,0,0,1,557.466,742.1Z" transform="translate(-504.46 -659.218)"/><path class="b" d="M287.1,129.5l-12.88,21.213,37.232,22.607,12.88-21.213Z" transform="translate(-258.75 -129.5)"/><path class="c" d="M287.1,129.5l-12.88,21.213,37.232,22.607,12.88-21.213Zm24.11,42.831-36-21.859,12.133-19.982,36,21.86Z" transform="translate(-258.75 -129.5)"/><rect class="c" width="0.72" height="42.718" transform="matrix(0.519, -0.855, 0.855, 0.519, 24.039, 7.797)"/><rect class="c" width="0.72" height="42.718" transform="matrix(0.519, -0.855, 0.855, 0.519, 18.916, 16.235)"/><rect class="c" width="24.817" height="0.72" transform="matrix(0.519, -0.855, 0.855, 0.519, 25.626, 27.378)"/><path class="c" d="M364.907,141.461l-12.88,21.213-.641-.332,12.906-21.255Z" transform="translate(-305.785 -122.777)"/><path class="c" d="M271.121,61l-.287-.174-.641-.332-.024-.072-.35-1.055-2.592-7.8-.35-1.055L262.42,37.1l-.351-1.055-1.26-3.793-.3-.9-2.077-6.249-.351-1.055.952.578.35,1.055L261,30.548l.3.9,1.721,5.179.35,1.055,4.456,13.413.351,1.055,2.506,7.54.086.26.212.637Z" transform="translate(-224.592 -20.931)"/><path class="d" d="M284.111,280.342h-.359v-9.829a5.689,5.689,0,0,0-5.689-5.689H257.238a5.689,5.689,0,0,0-5.689,5.689v53.924a5.689,5.689,0,0,0,5.689,5.689h20.824a5.689,5.689,0,0,0,5.689-5.689v-37.1h.359Z" transform="translate(-239.02 -247.262)"/><path class="b" d="M288.818,276.229H286.1a2.018,2.018,0,0,1-1.869,2.781H272.3a2.018,2.018,0,0,1-1.869-2.781h-2.539a4.248,4.248,0,0,0-4.248,4.248v53.845a4.248,4.248,0,0,0,4.248,4.248h20.925a4.248,4.248,0,0,0,4.248-4.248h0V280.477a4.248,4.248,0,0,0-4.248-4.248Z" transform="translate(-249.546 -257.187)"/><rect class="e" width="8.966" height="2.164" transform="translate(24.327 34.126)"/><rect class="c" width="9.82" height="2.164" transform="translate(23.9 43.423)"/><rect class="c" width="21.917" height="2.164" transform="translate(17.852 48.071)"/><rect class="c" width="21.917" height="2.164" transform="translate(17.852 52.719)"/><rect class="e" width="8.966" height="3.278" transform="translate(24.327 63.02)"/><circle class="e" cx="0.992" cy="0.992" r="0.992" transform="translate(47.504 15.802)"/><path class="f" d="M708.65,541.641a1.2,1.2,0,0,0,.4-1.8l1.367-2.388-1.248-1.184-1.883,3.4a1.21,1.21,0,0,0,1.369,1.976Z" transform="translate(-635.253 -483.478)"/><path class="f" d="M607.609,581.684h-1.734l-.825-6.689h2.56Z" transform="translate(-526.529 -500.375)"/><path class="g" d="M745.682,753.922H740.09v-.071a2.177,2.177,0,0,1,2.176-2.177h3.415Z" transform="translate(-664.16 -670.932)"/><path class="f" d="M701.332,569.8l-1.529.818-3.882-5.51,2.257-1.207Z" transform="translate(-605.608 -490.725)"/><path class="g" d="M866.712,735.387l-4.931,2.636-.033-.062a2.177,2.177,0,0,1,.893-2.946h0l3.012-1.61Z" transform="translate(-769.805 -655.033)"/><path class="g" d="M759.114,552.925l.388,8.015s.9.336.582,1.636c0,0-.44,1.5.555,1.5s4.886,9.254,4.886,9.254l-2.543,1.289-6.68-9.7-1.9-6.476-1.017,7.358-.068,11.359L750,576.787l-.949-13.122-.441-10Z" transform="translate(-671.57 -497.975)"/><path class="d" d="M585.464,310.326l.819-5.941L589.12,290.5l5.391.305,2.574,4.964-.447,9.684,1.03,3.823Z" transform="translate(-509.485 -252.797)"/><path class="d" d="M721.428,431.482l-3.238,6.164-.507,1.209L716.2,437.1l2.032-7.181s1.839-8.9,4.762-9.809l.707.115Z" transform="translate(-643.37 -382.396)"/><path class="f" d="M805.171,528.964a1.2,1.2,0,0,0,.664-1.722l1.713-2.153-1.054-1.36-2.376,3.074a1.21,1.21,0,0,0,1.053,2.161Z" transform="translate(-719.395 -472.568)"/><path class="d" d="M802.432,422.981l.956-.917s1.123.418,1.931,2.575,3.439,8,3.439,8l-2.575,5.228-1.736-1.151.936-4.6Z" transform="translate(-718.411 -384.097)"/><circle class="f" cx="2.857" cy="2.857" r="2.857" transform="translate(78.962 31.381)"/><path class="g" d="M767.439,365.087l.138-.279-.7-.346a2.042,2.042,0,0,0-2.16-.9c-1.391.352-2.017.562-2.017.562l-.7.35.349.347-.626.21.418.208-.486.28.262,1.433s.435-1.087,1.271-.672a3.705,3.705,0,0,0,2.366-.215l1.329,2.572s.274-.9.763-.661C767.654,367.977,768.9,365.988,767.439,365.087Z" transform="translate(-682.933 -333.133)"/><path class="h" d="M270.37,768.76H155.13a.13.13,0,1,1,0-.26H270.37a.13.13,0,0,1,0,.26Z" transform="translate(-155 -685.574)"/></svg>