<?xml version="1.0" encoding="utf-8"?>
<!-- Generator: Adobe Illustrator 12.0.0, SVG Export Plug-In . SVG Version: 6.00 Build 51448)  -->
<!DOCTYPE svg PUBLIC "-//W3C//DTD SVG 1.1//EN" "http://www.w3.org/Graphics/SVG/1.1/DTD/svg11.dtd" [
	<!ENTITY ns_svg "http://www.w3.org/2000/svg">
	<!ENTITY ns_xlink "http://www.w3.org/1999/xlink">
]>
<svg  version="1.1" id="Ebene_1" xmlns="&ns_svg;" xmlns:xlink="&ns_xlink;" width="96" height="96" viewBox="0 0 96 96"
	 overflow="visible" enable-background="new 0 0 96 96" xml:space="preserve">
<path fill="#4581B3" d="M48,96C21.534,96,0,74.466,0,48S21.534,0,48,0s48,21.534,48,48S74.466,96,48,96z M48,4
	C23.738,4,4,23.738,4,48c0,24.262,19.738,44,44,44c24.262,0,44-19.738,44-44C92,23.738,72.262,4,48,4z M70,50H30.828l8.586,8.586
	c0.781,0.782,0.781,2.046,0,2.828C39.023,61.805,38.512,62,38,62s-1.023-0.195-1.414-0.586l-12-12
	c-0.184-0.184-0.33-0.404-0.432-0.65c-0.202-0.488-0.202-1.039,0-1.527c0.102-0.246,0.248-0.467,0.432-0.65l12-12
	c0.782-0.781,2.046-0.781,2.828,0c0.781,0.782,0.781,2.046,0,2.828L30.828,46H70c1.104,0,2,0.896,2,2C72,49.104,71.104,50,70,50z"/>
</svg>
