<?xml version="1.0" encoding="utf-8"?>
<!-- Generator: Adobe Illustrator 12.0.0, SVG Export Plug-In . SVG Version: 6.00 Build 51448)  -->
<!DOCTYPE svg PUBLIC "-//W3C//DTD SVG 1.1//EN" "http://www.w3.org/Graphics/SVG/1.1/DTD/svg11.dtd" [
	<!ENTITY ns_svg "http://www.w3.org/2000/svg">
	<!ENTITY ns_xlink "http://www.w3.org/1999/xlink">
]>
<svg  version="1.1" id="Capa_1" xmlns="&ns_svg;" xmlns:xlink="&ns_xlink;" width="512" height="512" viewBox="0 0 512 512"
	 overflow="visible" enable-background="new 0 0 512 512" xml:space="preserve">
<path fill="#599FC6" d="M321.381,295.973c-9.673,0-18.39,3.674-24.463,9.522l-77.868-41.201c1.218-3.047,1.888-6.317,1.888-9.729
	c0-3.411-0.67-6.682-1.888-9.729l77.868-41.201c6.073,5.85,14.79,9.523,24.463,9.523c18.299,0,33.187-13.143,33.187-29.297
	c0-16.154-14.888-29.297-33.187-29.297s-33.188,13.143-33.188,29.297c0,3.41,0.672,6.682,1.891,9.729l-77.869,41.201
	c-6.072-5.85-14.79-9.523-24.462-9.523c-18.299,0-33.186,13.143-33.186,29.297s14.887,29.296,33.186,29.296
	c9.672,0,18.39-3.674,24.462-9.522l77.869,41.201c-1.219,3.047-1.891,6.317-1.891,9.729c0,16.153,14.889,29.297,33.188,29.297
	s33.187-13.144,33.187-29.297C354.567,309.115,339.68,295.973,321.381,295.973z"/>
<g>
	<path fill="#4581B3" d="M258.991,210.042v13.662l37.927-20.068c6.073,5.85,14.79,9.523,24.463,9.523
		c18.299,0,33.187-13.143,33.187-29.297c0-16.154-14.888-29.297-33.187-29.297s-33.188,13.143-33.188,29.297
		c0,3.41,0.672,6.682,1.891,9.729L258.991,210.042z"/>
	<path fill="#4581B3" d="M321.381,295.973c-9.673,0-18.39,3.674-24.463,9.522l-37.927-20.068v13.662l31.093,16.451
		c-1.219,3.047-1.891,6.317-1.891,9.729c0,16.153,14.889,29.297,33.188,29.297s33.187-13.144,33.187-29.297
		C354.567,309.115,339.68,295.973,321.381,295.973z"/>
</g>
<path fill="#5EB1EA" d="M321.381,166.284c10.979,0,19.911,7.886,19.911,17.578c0,9.692-8.934,17.578-19.911,17.578
	c-10.979,0-19.912-7.886-19.912-17.578C301.469,174.17,310.402,166.284,321.381,166.284z"/>
<path fill="#5EB1EA" d="M187.752,272.145c-10.979,0-19.912-7.886-19.912-17.579c0-9.692,8.933-17.578,19.912-17.578
	s19.911,7.886,19.911,17.578C207.664,264.259,198.731,272.145,187.752,272.145z"/>
<path fill="#5EB1EA" d="M321.381,342.848c-10.979,0-19.912-7.886-19.912-17.578c0-9.693,8.935-17.578,19.912-17.578
	c10.979,0,19.911,7.885,19.911,17.578C341.292,334.962,332.358,342.848,321.381,342.848z"/>
</svg>
