<svg xmlns="http://www.w3.org/2000/svg" width="40" height="40" viewBox="0 0 40 40"><defs><style>.a{fill:#6c63ff;}</style></defs><path class="a" d="M0,4.375v18.75A1.875,1.875,0,0,0,1.875,25h6.25A1.875,1.875,0,0,0,10,23.125V4.375A1.875,1.875,0,0,0,8.125,2.5H1.875A1.875,1.875,0,0,0,0,4.375ZM3.125,20A1.875,1.875,0,1,1,5,21.875,1.875,1.875,0,0,1,3.125,20Zm21.25,20c-1.577,0-2.3-3.07-2.651-4.515-.407-1.693-.827-3.443-1.984-4.6-2.537-2.541-3.867-5.779-6.962-8.837a.936.936,0,0,1-.278-.666V4.68a.938.938,0,0,1,.921-.937,12.293,12.293,0,0,0,4.113-1.264A22.428,22.428,0,0,1,26.875,0H27.1c3.342,0,7.294.032,8.889,2.323a4.147,4.147,0,0,1,.48,3.487,6.178,6.178,0,0,1,1.28,5.84,6.526,6.526,0,0,1,.727,6.209l.009.009A5.657,5.657,0,0,1,40,21.711a4.668,4.668,0,0,1-4.653,4.539H27.4c.571,2.214,2.6,4.073,2.6,7.387C30,39.375,26.25,40,24.375,40Z"/></svg>