<svg xmlns="http://www.w3.org/2000/svg" width="40" height="40" viewBox="0 0 40 40"><defs><style>.a{fill:#fff;}</style></defs><path class="a" d="M8.125,17.5H1.875A1.875,1.875,0,0,0,0,19.375v18.75A1.875,1.875,0,0,0,1.875,40h6.25A1.875,1.875,0,0,0,10,38.125V19.375A1.875,1.875,0,0,0,8.125,17.5ZM5,36.875A1.875,1.875,0,1,1,6.875,35,1.875,1.875,0,0,1,5,36.875ZM30,6.363c0,3.314-2.029,5.172-2.6,7.387h7.947A4.668,4.668,0,0,1,40,18.289a5.656,5.656,0,0,1-1.519,3.844l-.009.009a6.526,6.526,0,0,1-.727,6.209,6.178,6.178,0,0,1-1.28,5.84,4.147,4.147,0,0,1-.48,3.487C34.391,39.968,30.439,40,27.1,40h-.222a22.427,22.427,0,0,1-9.341-2.479,12.3,12.3,0,0,0-4.113-1.264.938.938,0,0,1-.921-.937v-16.7a.936.936,0,0,1,.278-.666c3.095-3.058,4.426-6.3,6.962-8.837,1.157-1.159,1.577-2.909,1.984-4.6C22.072,3.07,22.8,0,24.375,0,26.25,0,30,.625,30,6.363Z"/></svg>